{
	"asset":{
		"generator":"Khronos glTF Blender I/O v4.5.47",
		"version":"2.0"
	},
	"scene":0,
	"scenes":[
		{
			"name":"Scene",
			"nodes":[
				0,
				1,
				2,
				3,
				4,
				5,
				6,
				7,
				8,
				9,
				10,
				11,
				12,
				13,
				14,
				15,
				16,
				17,
				18,
				19,
				20,
				21,
				22,
				23,
				24,
				25,
				26,
				27,
				28,
				29,
				30,
				31,
				32,
				33,
				34,
				35,
				36,
				37,
				38,
				39,
				40,
				41,
				42,
				43,
				44,
				45,
				46,
				47,
				48,
				49,
				50,
				51,
				52,
				53,
				54,
				55,
				56,
				57,
				58,
				59,
				60,
				61,
				62,
				63
			]
		}
	],
	"nodes":[
		{
			"mesh":0,
			"name":"Cube",
			"rotation":[
				0.7071068286895752,
				0,
				0,
				0.7071068286895752
			]
		},
		{
			"mesh":1,
			"name":"Cube.007",
			"rotation":[
				0.7071068286895752,
				0,
				0,
				0.7071068286895752
			]
		},
		{
			"mesh":2,
			"name":"Cube.008",
			"rotation":[
				0.7071068286895752,
				0,
				0,
				0.7071068286895752
			]
		},
		{
			"mesh":3,
			"name":"Cube.015",
			"rotation":[
				0.7071068286895752,
				0,
				0,
				0.7071068286895752
			]
		},
		{
			"mesh":4,
			"name":"Cube.016",
			"rotation":[
				0.7071068286895752,
				0,
				0,
				0.7071068286895752
			]
		},
		{
			"mesh":5,
			"name":"Cube.023",
			"rotation":[
				0.7071068286895752,
				0,
				0,
				0.7071068286895752
			]
		},
		{
			"mesh":6,
			"name":"Cube.024",
			"rotation":[
				0.7071068286895752,
				0,
				0,
				0.7071068286895752
			]
		},
		{
			"mesh":7,
			"name":"Cube.031",
			"rotation":[
				0.7071068286895752,
				0,
				0,
				0.7071068286895752
			]
		},
		{
			"mesh":8,
			"name":"Cube.032",
			"rotation":[
				0.7071068286895752,
				0,
				0,
				0.7071068286895752
			]
		},
		{
			"mesh":9,
			"name":"Cube.039",
			"rotation":[
				0.7071068286895752,
				0,
				0,
				0.7071068286895752
			]
		},
		{
			"mesh":10,
			"name":"Cube.040",
			"rotation":[
				0.7071068286895752,
				0,
				0,
				0.7071068286895752
			]
		},
		{
			"mesh":11,
			"name":"Cube.047",
			"rotation":[
				0.7071068286895752,
				0,
				0,
				0.7071068286895752
			]
		},
		{
			"mesh":12,
			"name":"Cube.048",
			"rotation":[
				0.7071068286895752,
				0,
				0,
				0.7071068286895752
			]
		},
		{
			"mesh":13,
			"name":"Cube.055",
			"rotation":[
				0.7071068286895752,
				0,
				0,
				0.7071068286895752
			]
		},
		{
			"mesh":14,
			"name":"Cube.056",
			"rotation":[
				0.7071068286895752,
				0,
				0,
				0.7071068286895752
			]
		},
		{
			"mesh":15,
			"name":"Cube.063",
			"rotation":[
				0.7071068286895752,
				0,
				0,
				0.7071068286895752
			]
		},
		{
			"mesh":16,
			"name":"Cube.001",
			"rotation":[
				0.7071068286895752,
				0,
				0,
				0.7071068286895752
			],
			"translation":[
				3.0496437549591064,
				0,
				0
			]
		},
		{
			"mesh":17,
			"name":"Cube.002",
			"rotation":[
				0.7071068286895752,
				0,
				0,
				0.7071068286895752
			],
			"translation":[
				3.0496437549591064,
				0,
				0
			]
		},
		{
			"mesh":18,
			"name":"Cube.003",
			"rotation":[
				0.7071068286895752,
				0,
				0,
				0.7071068286895752
			],
			"translation":[
				3.0496437549591064,
				0,
				0
			]
		},
		{
			"mesh":19,
			"name":"Cube.004",
			"rotation":[
				0.7071068286895752,
				0,
				0,
				0.7071068286895752
			],
			"translation":[
				3.0496437549591064,
				0,
				0
			]
		},
		{
			"mesh":20,
			"name":"Cube.005",
			"rotation":[
				0.7071068286895752,
				0,
				0,
				0.7071068286895752
			],
			"translation":[
				3.0496437549591064,
				0,
				0
			]
		},
		{
			"mesh":21,
			"name":"Cube.006",
			"rotation":[
				0.7071068286895752,
				0,
				0,
				0.7071068286895752
			],
			"translation":[
				3.0496437549591064,
				0,
				0
			]
		},
		{
			"mesh":22,
			"name":"Cube.009",
			"rotation":[
				0.7071068286895752,
				0,
				0,
				0.7071068286895752
			],
			"translation":[
				3.0496437549591064,
				0,
				0
			]
		},
		{
			"mesh":23,
			"name":"Cube.010",
			"rotation":[
				0.7071068286895752,
				0,
				0,
				0.7071068286895752
			],
			"translation":[
				3.0496437549591064,
				0,
				0
			]
		},
		{
			"mesh":24,
			"name":"Cube.011",
			"rotation":[
				0.7071068286895752,
				0,
				0,
				0.7071068286895752
			],
			"translation":[
				3.0496437549591064,
				0,
				0
			]
		},
		{
			"mesh":25,
			"name":"Cube.012",
			"rotation":[
				0.7071068286895752,
				0,
				0,
				0.7071068286895752
			],
			"translation":[
				3.0496437549591064,
				0,
				0
			]
		},
		{
			"mesh":26,
			"name":"Cube.013",
			"rotation":[
				0.7071068286895752,
				0,
				0,
				0.7071068286895752
			],
			"translation":[
				3.0496437549591064,
				0,
				0
			]
		},
		{
			"mesh":27,
			"name":"Cube.014",
			"rotation":[
				0.7071068286895752,
				0,
				0,
				0.7071068286895752
			],
			"translation":[
				3.0496437549591064,
				0,
				0
			]
		},
		{
			"mesh":28,
			"name":"Cube.017",
			"rotation":[
				0.7071068286895752,
				0,
				0,
				0.7071068286895752
			],
			"translation":[
				3.0496437549591064,
				0,
				0
			]
		},
		{
			"mesh":29,
			"name":"Cube.018",
			"rotation":[
				0.7071068286895752,
				0,
				0,
				0.7071068286895752
			],
			"translation":[
				3.0496437549591064,
				0,
				0
			]
		},
		{
			"mesh":30,
			"name":"Cube.019",
			"rotation":[
				0.7071068286895752,
				0,
				0,
				0.7071068286895752
			],
			"translation":[
				3.0496437549591064,
				0,
				0
			]
		},
		{
			"mesh":31,
			"name":"Cube.020",
			"rotation":[
				0.7071068286895752,
				0,
				0,
				0.7071068286895752
			],
			"translation":[
				3.0496437549591064,
				0,
				0
			]
		},
		{
			"mesh":32,
			"name":"Cube.021",
			"rotation":[
				0.7071068286895752,
				0,
				0,
				0.7071068286895752
			],
			"translation":[
				6.042812824249268,
				0,
				0
			]
		},
		{
			"mesh":33,
			"name":"Cube.022",
			"rotation":[
				0.7071068286895752,
				0,
				0,
				0.7071068286895752
			],
			"translation":[
				6.042812824249268,
				0,
				0
			]
		},
		{
			"mesh":34,
			"name":"Cube.025",
			"rotation":[
				0.7071068286895752,
				0,
				0,
				0.7071068286895752
			],
			"translation":[
				6.042812824249268,
				0,
				0
			]
		},
		{
			"mesh":35,
			"name":"Cube.026",
			"rotation":[
				0.7071068286895752,
				0,
				0,
				0.7071068286895752
			],
			"translation":[
				6.042812824249268,
				0,
				0
			]
		},
		{
			"mesh":36,
			"name":"Cube.027",
			"rotation":[
				0.7071068286895752,
				0,
				0,
				0.7071068286895752
			],
			"translation":[
				6.042812824249268,
				0,
				0
			]
		},
		{
			"mesh":37,
			"name":"Cube.028",
			"rotation":[
				0.7071068286895752,
				0,
				0,
				0.7071068286895752
			],
			"translation":[
				6.042812824249268,
				0,
				0
			]
		},
		{
			"mesh":38,
			"name":"Cube.029",
			"rotation":[
				0.7071068286895752,
				0,
				0,
				0.7071068286895752
			],
			"translation":[
				6.042812824249268,
				0,
				0
			]
		},
		{
			"mesh":39,
			"name":"Cube.030",
			"rotation":[
				0.7071068286895752,
				0,
				0,
				0.7071068286895752
			],
			"translation":[
				6.042812824249268,
				0,
				0
			]
		},
		{
			"mesh":40,
			"name":"Cube.033",
			"rotation":[
				0.7071068286895752,
				0,
				0,
				0.7071068286895752
			],
			"translation":[
				6.042812824249268,
				0,
				0
			]
		},
		{
			"mesh":41,
			"name":"Cube.034",
			"rotation":[
				0.7071068286895752,
				0,
				0,
				0.7071068286895752
			],
			"translation":[
				6.042812824249268,
				0,
				0
			]
		},
		{
			"mesh":42,
			"name":"Cube.035",
			"rotation":[
				0.7071068286895752,
				0,
				0,
				0.7071068286895752
			],
			"translation":[
				6.042812824249268,
				0,
				0
			]
		},
		{
			"mesh":43,
			"name":"Cube.036",
			"rotation":[
				0.7071068286895752,
				0,
				0,
				0.7071068286895752
			],
			"translation":[
				9.092456817626953,
				0,
				0
			]
		},
		{
			"mesh":44,
			"name":"Cube.037",
			"rotation":[
				0.7071068286895752,
				0,
				0,
				0.7071068286895752
			],
			"translation":[
				9.092456817626953,
				0,
				0
			]
		},
		{
			"mesh":45,
			"name":"Cube.038",
			"rotation":[
				0.7071068286895752,
				0,
				0,
				0.7071068286895752
			],
			"translation":[
				9.092456817626953,
				0,
				0
			]
		},
		{
			"mesh":46,
			"name":"Cube.041",
			"rotation":[
				0.7071068286895752,
				0,
				0,
				0.7071068286895752
			],
			"translation":[
				9.092456817626953,
				0,
				0
			]
		},
		{
			"mesh":47,
			"name":"Cube.042",
			"rotation":[
				0.7071068286895752,
				0,
				0,
				0.7071068286895752
			],
			"translation":[
				6.042812824249268,
				0,
				0
			]
		},
		{
			"mesh":48,
			"name":"Cube.043",
			"rotation":[
				0.7071068286895752,
				0,
				0,
				0.7071068286895752
			],
			"translation":[
				6.042812824249268,
				0,
				0
			]
		},
		{
			"mesh":49,
			"name":"Cube.044",
			"rotation":[
				0.7071068286895752,
				0,
				0,
				0.7071068286895752
			],
			"translation":[
				9.092456817626953,
				0,
				0
			]
		},
		{
			"mesh":50,
			"name":"Cube.045",
			"rotation":[
				0.7071068286895752,
				0,
				0,
				0.7071068286895752
			],
			"translation":[
				9.092456817626953,
				0,
				0
			]
		},
		{
			"mesh":51,
			"name":"Cube.046",
			"rotation":[
				0.7071068286895752,
				0,
				0,
				0.7071068286895752
			],
			"translation":[
				9.092456817626953,
				0,
				0
			]
		},
		{
			"mesh":52,
			"name":"Cube.049",
			"rotation":[
				0.7071068286895752,
				0,
				0,
				0.7071068286895752
			],
			"translation":[
				9.092456817626953,
				0,
				0
			]
		},
		{
			"mesh":53,
			"name":"Cube.050",
			"rotation":[
				0.7071068286895752,
				0,
				0,
				0.7071068286895752
			],
			"translation":[
				9.092456817626953,
				0,
				0
			]
		},
		{
			"mesh":54,
			"name":"Cube.051",
			"rotation":[
				0.7071068286895752,
				0,
				0,
				0.7071068286895752
			],
			"translation":[
				9.092456817626953,
				0,
				0
			]
		},
		{
			"mesh":55,
			"name":"Cube.052",
			"rotation":[
				0.7071068286895752,
				0,
				0,
				0.7071068286895752
			],
			"translation":[
				6.042812824249268,
				0,
				0
			]
		},
		{
			"mesh":56,
			"name":"Cube.053",
			"rotation":[
				0.7071068286895752,
				0,
				0,
				0.7071068286895752
			],
			"translation":[
				6.042812824249268,
				0,
				0
			]
		},
		{
			"mesh":57,
			"name":"Cube.054",
			"rotation":[
				0.7071068286895752,
				0,
				0,
				0.7071068286895752
			],
			"translation":[
				9.092456817626953,
				0,
				0
			]
		},
		{
			"mesh":58,
			"name":"Cube.057",
			"rotation":[
				0.7071068286895752,
				0,
				0,
				0.7071068286895752
			],
			"translation":[
				9.092456817626953,
				0,
				0
			]
		},
		{
			"mesh":59,
			"name":"Cube.058",
			"rotation":[
				0.7071068286895752,
				0,
				0,
				0.7071068286895752
			],
			"translation":[
				9.092456817626953,
				0,
				0
			]
		},
		{
			"mesh":60,
			"name":"Cube.059",
			"rotation":[
				0.7071068286895752,
				0,
				0,
				0.7071068286895752
			],
			"translation":[
				9.092456817626953,
				0,
				0
			]
		},
		{
			"mesh":61,
			"name":"Cube.060",
			"rotation":[
				0.7071068286895752,
				0,
				0,
				0.7071068286895752
			],
			"translation":[
				9.092456817626953,
				0,
				0
			]
		},
		{
			"mesh":62,
			"name":"Cube.061",
			"rotation":[
				0.7071068286895752,
				0,
				0,
				0.7071068286895752
			],
			"translation":[
				9.092456817626953,
				0,
				0
			]
		},
		{
			"mesh":63,
			"name":"Cube.062",
			"rotation":[
				0.7071068286895752,
				0,
				0,
				0.7071068286895752
			],
			"translation":[
				6.042812824249268,
				0,
				0
			]
		}
	],
	"materials":[
		{
			"doubleSided":true,
			"name":"Material.001",
			"pbrMetallicRoughness":{
				"baseColorFactor":[
					0,
					0.7506660223007202,
					0.8008919954299927,
					1
				],
				"metallicFactor":0,
				"roughnessFactor":0.5
			}
		},
		{
			"doubleSided":true,
			"name":"Material.008",
			"pbrMetallicRoughness":{
				"baseColorFactor":[
					0.8006790280342102,
					0.5357499718666077,
					0.6501529812812805,
					1
				],
				"metallicFactor":0,
				"roughnessFactor":0.5
			}
		},
		{
			"doubleSided":true,
			"name":"Material.009",
			"pbrMetallicRoughness":{
				"baseColorFactor":[
					0.22290199995040894,
					0,
					0.8014280200004578,
					1
				],
				"metallicFactor":0,
				"roughnessFactor":0.5
			}
		},
		{
			"doubleSided":true,
			"name":"Material.016",
			"pbrMetallicRoughness":{
				"baseColorFactor":[
					0.8013799786567688,
					0,
					0.07279299944639206,
					1
				],
				"metallicFactor":0,
				"roughnessFactor":0.5
			}
		},
		{
			"doubleSided":true,
			"name":"Material.017",
			"pbrMetallicRoughness":{
				"baseColorFactor":[
					0.5374630093574524,
					0.8007349967956543,
					0,
					1
				],
				"metallicFactor":0,
				"roughnessFactor":0.5
			}
		},
		{
			"doubleSided":true,
			"name":"Material.024",
			"pbrMetallicRoughness":{
				"baseColorFactor":[
					0,
					0.8008440136909485,
					0.24087800085544586,
					1
				],
				"metallicFactor":0,
				"roughnessFactor":0.5
			}
		},
		{
			"doubleSided":true,
			"name":"Material.025",
			"pbrMetallicRoughness":{
				"baseColorFactor":[
					0.8007259964942932,
					0,
					0.003955999854952097,
					1
				],
				"metallicFactor":0,
				"roughnessFactor":0.5
			}
		},
		{
			"doubleSided":true,
			"name":"Material.032",
			"pbrMetallicRoughness":{
				"baseColorFactor":[
					0.0050570000894367695,
					0.800590991973877,
					0.00418699998408556,
					1
				],
				"metallicFactor":0,
				"roughnessFactor":0.5
			}
		},
		{
			"doubleSided":true,
			"name":"Material.033",
			"pbrMetallicRoughness":{
				"baseColorFactor":[
					0.8006709814071655,
					0.3338029980659485,
					0,
					1
				],
				"metallicFactor":0,
				"roughnessFactor":0.5
			}
		},
		{
			"doubleSided":true,
			"name":"Material.040",
			"pbrMetallicRoughness":{
				"baseColorFactor":[
					0.5626819729804993,
					0.7888360023498535,
					0.8007190227508545,
					1
				],
				"metallicFactor":0,
				"roughnessFactor":0.5
			}
		},
		{
			"doubleSided":true,
			"name":"Material.041",
			"pbrMetallicRoughness":{
				"baseColorFactor":[
					0.014480000361800194,
					0.010613000020384789,
					0.8011500239372253,
					1
				],
				"metallicFactor":0,
				"roughnessFactor":0.5
			}
		},
		{
			"doubleSided":true,
			"name":"Material.048",
			"pbrMetallicRoughness":{
				"baseColorFactor":[
					0.8007509708404541,
					0,
					0.5950499773025513,
					1
				],
				"metallicFactor":0,
				"roughnessFactor":0.5
			}
		},
		{
			"doubleSided":true,
			"name":"Material.049",
			"pbrMetallicRoughness":{
				"baseColorFactor":[
					0,
					0.06040399894118309,
					0.8007739782333374,
					1
				],
				"metallicFactor":0,
				"roughnessFactor":0.5
			}
		},
		{
			"doubleSided":true,
			"name":"Material.056",
			"pbrMetallicRoughness":{
				"baseColorFactor":[
					0.8007429838180542,
					0.15193699300289154,
					0.4260669946670532,
					1
				],
				"metallicFactor":0,
				"roughnessFactor":0.5
			}
		},
		{
			"doubleSided":true,
			"name":"Material.057",
			"pbrMetallicRoughness":{
				"baseColorFactor":[
					0.8008109927177429,
					0.0634789988398552,
					0.023357000201940536,
					1
				],
				"metallicFactor":0,
				"roughnessFactor":0.5
			}
		},
		{
			"doubleSided":true,
			"name":"Material.064",
			"pbrMetallicRoughness":{
				"baseColorFactor":[
					0.0269009992480278,
					0.010577999986708164,
					0.8006460070610046,
					1
				],
				"metallicFactor":0,
				"roughnessFactor":0.5
			}
		},
		{
			"doubleSided":true,
			"name":"Material.065",
			"pbrMetallicRoughness":{
				"baseColorFactor":[
					0.0269009992480278,
					0.010577999986708164,
					0.8006460070610046,
					1
				],
				"metallicFactor":0,
				"roughnessFactor":0.5
			}
		},
		{
			"doubleSided":true,
			"name":"Material.066",
			"pbrMetallicRoughness":{
				"baseColorFactor":[
					0.8008109927177429,
					0.0634789988398552,
					0.023357000201940536,
					1
				],
				"metallicFactor":0,
				"roughnessFactor":0.5
			}
		},
		{
			"doubleSided":true,
			"name":"Material.067",
			"pbrMetallicRoughness":{
				"baseColorFactor":[
					0.8007429838180542,
					0.15193699300289154,
					0.4260669946670532,
					1
				],
				"metallicFactor":0,
				"roughnessFactor":0.5
			}
		},
		{
			"doubleSided":true,
			"name":"Material.068",
			"pbrMetallicRoughness":{
				"baseColorFactor":[
					0,
					0.06040399894118309,
					0.8007739782333374,
					1
				],
				"metallicFactor":0,
				"roughnessFactor":0.5
			}
		},
		{
			"doubleSided":true,
			"name":"Material.069",
			"pbrMetallicRoughness":{
				"baseColorFactor":[
					0.8007509708404541,
					0,
					0.5950499773025513,
					1
				],
				"metallicFactor":0,
				"roughnessFactor":0.5
			}
		},
		{
			"doubleSided":true,
			"name":"Material.070",
			"pbrMetallicRoughness":{
				"baseColorFactor":[
					0.014480000361800194,
					0.010613000020384789,
					0.8011500239372253,
					1
				],
				"metallicFactor":0,
				"roughnessFactor":0.5
			}
		},
		{
			"doubleSided":true,
			"name":"Material.071",
			"pbrMetallicRoughness":{
				"baseColorFactor":[
					0.5626819729804993,
					0.7888360023498535,
					0.8007190227508545,
					1
				],
				"metallicFactor":0,
				"roughnessFactor":0.5
			}
		},
		{
			"doubleSided":true,
			"name":"Material.072",
			"pbrMetallicRoughness":{
				"baseColorFactor":[
					0.8006709814071655,
					0.3338029980659485,
					0,
					1
				],
				"metallicFactor":0,
				"roughnessFactor":0.5
			}
		},
		{
			"doubleSided":true,
			"name":"Material.073",
			"pbrMetallicRoughness":{
				"baseColorFactor":[
					0.0050570000894367695,
					0.800590991973877,
					0.00418699998408556,
					1
				],
				"metallicFactor":0,
				"roughnessFactor":0.5
			}
		},
		{
			"doubleSided":true,
			"name":"Material.074",
			"pbrMetallicRoughness":{
				"baseColorFactor":[
					0.8007259964942932,
					0,
					0.003955999854952097,
					1
				],
				"metallicFactor":0,
				"roughnessFactor":0.5
			}
		},
		{
			"doubleSided":true,
			"name":"Material.075",
			"pbrMetallicRoughness":{
				"baseColorFactor":[
					0,
					0.8008440136909485,
					0.24087800085544586,
					1
				],
				"metallicFactor":0,
				"roughnessFactor":0.5
			}
		},
		{
			"doubleSided":true,
			"name":"Material.076",
			"pbrMetallicRoughness":{
				"baseColorFactor":[
					0.5374630093574524,
					0.8007349967956543,
					0,
					1
				],
				"metallicFactor":0,
				"roughnessFactor":0.5
			}
		},
		{
			"doubleSided":true,
			"name":"Material.077",
			"pbrMetallicRoughness":{
				"baseColorFactor":[
					0.8013799786567688,
					0,
					0.07279299944639206,
					1
				],
				"metallicFactor":0,
				"roughnessFactor":0.5
			}
		},
		{
			"doubleSided":true,
			"name":"Material.078",
			"pbrMetallicRoughness":{
				"baseColorTexture":{
					"index":0
				},
				"metallicFactor":0,
				"roughnessFactor":0.5
			}
		},
		{
			"doubleSided":true,
			"name":"Material.079",
			"pbrMetallicRoughness":{
				"baseColorFactor":[
					0.8006790280342102,
					0.5357499718666077,
					0.6501529812812805,
					1
				],
				"metallicFactor":0,
				"roughnessFactor":0.5
			}
		},
		{
			"doubleSided":true,
			"name":"Material.080",
			"pbrMetallicRoughness":{
				"baseColorFactor":[
					0,
					0.7506660223007202,
					0.8008919954299927,
					1
				],
				"metallicFactor":0,
				"roughnessFactor":0.5
			}
		},
		{
			"doubleSided":true,
			"name":"Material.081",
			"pbrMetallicRoughness":{
				"baseColorTexture":{
					"index":1
				},
				"metallicFactor":0,
				"roughnessFactor":0.5
			}
		},
		{
			"doubleSided":true,
			"name":"Material.082",
			"pbrMetallicRoughness":{
				"baseColorFactor":[
					0.8008109927177429,
					0.0634789988398552,
					0.023357000201940536,
					1
				],
				"metallicFactor":0,
				"roughnessFactor":0.5
			}
		},
		{
			"doubleSided":true,
			"name":"Material.083",
			"pbrMetallicRoughness":{
				"baseColorFactor":[
					0.8007429838180542,
					0.15193699300289154,
					0.4260669946670532,
					1
				],
				"metallicFactor":0,
				"roughnessFactor":0.5
			}
		},
		{
			"doubleSided":true,
			"name":"Material.084",
			"pbrMetallicRoughness":{
				"baseColorFactor":[
					0,
					0.06040399894118309,
					0.8007739782333374,
					1
				],
				"metallicFactor":0,
				"roughnessFactor":0.5
			}
		},
		{
			"doubleSided":true,
			"name":"Material.085",
			"pbrMetallicRoughness":{
				"baseColorFactor":[
					0.8007509708404541,
					0,
					0.5950499773025513,
					1
				],
				"metallicFactor":0,
				"roughnessFactor":0.5
			}
		},
		{
			"doubleSided":true,
			"name":"Material.086",
			"pbrMetallicRoughness":{
				"baseColorFactor":[
					0.014480000361800194,
					0.010613000020384789,
					0.8011500239372253,
					1
				],
				"metallicFactor":0,
				"roughnessFactor":0.5
			}
		},
		{
			"doubleSided":true,
			"name":"Material.087",
			"pbrMetallicRoughness":{
				"baseColorFactor":[
					0.5626819729804993,
					0.7888360023498535,
					0.8007190227508545,
					1
				],
				"metallicFactor":0,
				"roughnessFactor":0.5
			}
		},
		{
			"doubleSided":true,
			"name":"Material.088",
			"pbrMetallicRoughness":{
				"baseColorFactor":[
					0.8006709814071655,
					0.3338029980659485,
					0,
					1
				],
				"metallicFactor":0,
				"roughnessFactor":0.5
			}
		},
		{
			"doubleSided":true,
			"name":"Material.089",
			"pbrMetallicRoughness":{
				"baseColorFactor":[
					0.0050570000894367695,
					0.800590991973877,
					0.00418699998408556,
					1
				],
				"metallicFactor":0,
				"roughnessFactor":0.5
			}
		},
		{
			"doubleSided":true,
			"name":"Material.090",
			"pbrMetallicRoughness":{
				"baseColorFactor":[
					0.8007259964942932,
					0,
					0.003955999854952097,
					1
				],
				"metallicFactor":0,
				"roughnessFactor":0.5
			}
		},
		{
			"doubleSided":true,
			"name":"Material.091",
			"pbrMetallicRoughness":{
				"baseColorFactor":[
					0,
					0.8008440136909485,
					0.24087800085544586,
					1
				],
				"metallicFactor":0,
				"roughnessFactor":0.5
			}
		},
		{
			"doubleSided":true,
			"name":"Material.092",
			"pbrMetallicRoughness":{
				"baseColorFactor":[
					0,
					0.7506660223007202,
					0.8008919954299927,
					1
				],
				"metallicFactor":0,
				"roughnessFactor":0.5
			}
		},
		{
			"doubleSided":true,
			"name":"Material.093",
			"pbrMetallicRoughness":{
				"baseColorFactor":[
					0.8006790280342102,
					0.5357499718666077,
					0.6501529812812805,
					1
				],
				"metallicFactor":0,
				"roughnessFactor":0.5
			}
		},
		{
			"doubleSided":true,
			"name":"Material.094",
			"pbrMetallicRoughness":{
				"baseColorFactor":[
					0.22290199995040894,
					0,
					0.8014280200004578,
					1
				],
				"metallicFactor":0,
				"roughnessFactor":0.5
			}
		},
		{
			"doubleSided":true,
			"name":"Material.095",
			"pbrMetallicRoughness":{
				"baseColorFactor":[
					0.8013799786567688,
					0,
					0.07279299944639206,
					1
				],
				"metallicFactor":0,
				"roughnessFactor":0.5
			}
		},
		{
			"doubleSided":true,
			"name":"Material.096",
			"pbrMetallicRoughness":{
				"baseColorFactor":[
					0.5374630093574524,
					0.8007349967956543,
					0,
					1
				],
				"metallicFactor":0,
				"roughnessFactor":0.5
			}
		},
		{
			"doubleSided":true,
			"name":"Material.097",
			"pbrMetallicRoughness":{
				"baseColorFactor":[
					0.8013799786567688,
					0,
					0.07279299944639206,
					1
				],
				"metallicFactor":0,
				"roughnessFactor":0.5
			}
		},
		{
			"doubleSided":true,
			"name":"Material.098",
			"pbrMetallicRoughness":{
				"baseColorTexture":{
					"index":2
				},
				"metallicFactor":0,
				"roughnessFactor":0.5
			}
		},
		{
			"doubleSided":true,
			"name":"Material.099",
			"pbrMetallicRoughness":{
				"baseColorFactor":[
					0,
					0.8008440136909485,
					0.24087800085544586,
					1
				],
				"metallicFactor":0,
				"roughnessFactor":0.5
			}
		},
		{
			"doubleSided":true,
			"name":"Material.100",
			"pbrMetallicRoughness":{
				"baseColorFactor":[
					0.8007259964942932,
					0,
					0.003955999854952097,
					1
				],
				"metallicFactor":0,
				"roughnessFactor":0.5
			}
		},
		{
			"doubleSided":true,
			"name":"Material.101",
			"pbrMetallicRoughness":{
				"baseColorFactor":[
					0.0050570000894367695,
					0.800590991973877,
					0.00418699998408556,
					1
				],
				"metallicFactor":0,
				"roughnessFactor":0.5
			}
		},
		{
			"doubleSided":true,
			"name":"Material.102",
			"pbrMetallicRoughness":{
				"baseColorFactor":[
					0.8006709814071655,
					0.3338029980659485,
					0,
					1
				],
				"metallicFactor":0,
				"roughnessFactor":0.5
			}
		},
		{
			"doubleSided":true,
			"name":"Material.103",
			"pbrMetallicRoughness":{
				"baseColorFactor":[
					0.5626819729804993,
					0.7888360023498535,
					0.8007190227508545,
					1
				],
				"metallicFactor":0,
				"roughnessFactor":0.5
			}
		},
		{
			"doubleSided":true,
			"name":"Material.104",
			"pbrMetallicRoughness":{
				"baseColorFactor":[
					0.22290199995040894,
					0,
					0.8014280200004578,
					1
				],
				"metallicFactor":0,
				"roughnessFactor":0.5
			}
		},
		{
			"doubleSided":true,
			"name":"Material.105",
			"pbrMetallicRoughness":{
				"baseColorFactor":[
					0.8006790280342102,
					0.5357499718666077,
					0.6501529812812805,
					1
				],
				"metallicFactor":0,
				"roughnessFactor":0.5
			}
		},
		{
			"doubleSided":true,
			"name":"Material.106",
			"pbrMetallicRoughness":{
				"baseColorFactor":[
					0.014480000361800194,
					0.010613000020384789,
					0.8011500239372253,
					1
				],
				"metallicFactor":0,
				"roughnessFactor":0.5
			}
		},
		{
			"doubleSided":true,
			"name":"Material.107",
			"pbrMetallicRoughness":{
				"baseColorFactor":[
					0.8007509708404541,
					0,
					0.5950499773025513,
					1
				],
				"metallicFactor":0,
				"roughnessFactor":0.5
			}
		},
		{
			"doubleSided":true,
			"name":"Material.108",
			"pbrMetallicRoughness":{
				"baseColorFactor":[
					0,
					0.06040399894118309,
					0.8007739782333374,
					1
				],
				"metallicFactor":0,
				"roughnessFactor":0.5
			}
		},
		{
			"doubleSided":true,
			"name":"Material.109",
			"pbrMetallicRoughness":{
				"baseColorFactor":[
					0.8007429838180542,
					0.15193699300289154,
					0.4260669946670532,
					1
				],
				"metallicFactor":0,
				"roughnessFactor":0.5
			}
		},
		{
			"doubleSided":true,
			"name":"Material.110",
			"pbrMetallicRoughness":{
				"baseColorFactor":[
					0.8008109927177429,
					0.0634789988398552,
					0.023357000201940536,
					1
				],
				"metallicFactor":0,
				"roughnessFactor":0.5
			}
		},
		{
			"doubleSided":true,
			"name":"Material.111",
			"pbrMetallicRoughness":{
				"baseColorFactor":[
					0.0269009992480278,
					0.010577999986708164,
					0.8006460070610046,
					1
				],
				"metallicFactor":0,
				"roughnessFactor":0.5
			}
		},
		{
			"doubleSided":true,
			"name":"Material.112",
			"pbrMetallicRoughness":{
				"baseColorFactor":[
					0,
					0.7506660223007202,
					0.8008919954299927,
					1
				],
				"metallicFactor":0,
				"roughnessFactor":0.5
			}
		}
	],
	"meshes":[
		{
			"name":"Cube.001",
			"primitives":[
				{
					"attributes":{
						"POSITION":0,
						"NORMAL":1,
						"TEXCOORD_0":2
					},
					"indices":3,
					"material":0
				}
			]
		},
		{
			"name":"Cube.008",
			"primitives":[
				{
					"attributes":{
						"POSITION":4,
						"NORMAL":5,
						"TEXCOORD_0":6
					},
					"indices":3,
					"material":1
				}
			]
		},
		{
			"name":"Cube.009",
			"primitives":[
				{
					"attributes":{
						"POSITION":7,
						"NORMAL":8,
						"TEXCOORD_0":9
					},
					"indices":3,
					"material":2
				}
			]
		},
		{
			"name":"Cube.016",
			"primitives":[
				{
					"attributes":{
						"POSITION":10,
						"NORMAL":11,
						"TEXCOORD_0":12
					},
					"indices":3,
					"material":3
				}
			]
		},
		{
			"name":"Cube.017",
			"primitives":[
				{
					"attributes":{
						"POSITION":13,
						"NORMAL":14,
						"TEXCOORD_0":15
					},
					"indices":3,
					"material":4
				}
			]
		},
		{
			"name":"Cube.024",
			"primitives":[
				{
					"attributes":{
						"POSITION":16,
						"NORMAL":17,
						"TEXCOORD_0":18
					},
					"indices":3,
					"material":5
				}
			]
		},
		{
			"name":"Cube.025",
			"primitives":[
				{
					"attributes":{
						"POSITION":19,
						"NORMAL":20,
						"TEXCOORD_0":21
					},
					"indices":3,
					"material":6
				}
			]
		},
		{
			"name":"Cube.032",
			"primitives":[
				{
					"attributes":{
						"POSITION":22,
						"NORMAL":23,
						"TEXCOORD_0":24
					},
					"indices":3,
					"material":7
				}
			]
		},
		{
			"name":"Cube.033",
			"primitives":[
				{
					"attributes":{
						"POSITION":25,
						"NORMAL":26,
						"TEXCOORD_0":27
					},
					"indices":3,
					"material":8
				}
			]
		},
		{
			"name":"Cube.040",
			"primitives":[
				{
					"attributes":{
						"POSITION":28,
						"NORMAL":29,
						"TEXCOORD_0":30
					},
					"indices":3,
					"material":9
				}
			]
		},
		{
			"name":"Cube.041",
			"primitives":[
				{
					"attributes":{
						"POSITION":31,
						"NORMAL":32,
						"TEXCOORD_0":33
					},
					"indices":3,
					"material":10
				}
			]
		},
		{
			"name":"Cube.048",
			"primitives":[
				{
					"attributes":{
						"POSITION":34,
						"NORMAL":35,
						"TEXCOORD_0":36
					},
					"indices":3,
					"material":11
				}
			]
		},
		{
			"name":"Cube.049",
			"primitives":[
				{
					"attributes":{
						"POSITION":37,
						"NORMAL":38,
						"TEXCOORD_0":39
					},
					"indices":3,
					"material":12
				}
			]
		},
		{
			"name":"Cube.056",
			"primitives":[
				{
					"attributes":{
						"POSITION":40,
						"NORMAL":41,
						"TEXCOORD_0":42
					},
					"indices":3,
					"material":13
				}
			]
		},
		{
			"name":"Cube.057",
			"primitives":[
				{
					"attributes":{
						"POSITION":43,
						"NORMAL":44,
						"TEXCOORD_0":45
					},
					"indices":3,
					"material":14
				}
			]
		},
		{
			"name":"Cube.064",
			"primitives":[
				{
					"attributes":{
						"POSITION":46,
						"NORMAL":47,
						"TEXCOORD_0":48
					},
					"indices":3,
					"material":15
				}
			]
		},
		{
			"name":"Cube.065",
			"primitives":[
				{
					"attributes":{
						"POSITION":49,
						"NORMAL":50,
						"TEXCOORD_0":51
					},
					"indices":3,
					"material":16
				}
			]
		},
		{
			"name":"Cube.066",
			"primitives":[
				{
					"attributes":{
						"POSITION":52,
						"NORMAL":53,
						"TEXCOORD_0":54
					},
					"indices":3,
					"material":17
				}
			]
		},
		{
			"name":"Cube.067",
			"primitives":[
				{
					"attributes":{
						"POSITION":55,
						"NORMAL":56,
						"TEXCOORD_0":57
					},
					"indices":3,
					"material":18
				}
			]
		},
		{
			"name":"Cube.068",
			"primitives":[
				{
					"attributes":{
						"POSITION":58,
						"NORMAL":59,
						"TEXCOORD_0":60
					},
					"indices":3,
					"material":19
				}
			]
		},
		{
			"name":"Cube.069",
			"primitives":[
				{
					"attributes":{
						"POSITION":61,
						"NORMAL":62,
						"TEXCOORD_0":63
					},
					"indices":3,
					"material":20
				}
			]
		},
		{
			"name":"Cube.070",
			"primitives":[
				{
					"attributes":{
						"POSITION":64,
						"NORMAL":65,
						"TEXCOORD_0":66
					},
					"indices":3,
					"material":21
				}
			]
		},
		{
			"name":"Cube.071",
			"primitives":[
				{
					"attributes":{
						"POSITION":67,
						"NORMAL":68,
						"TEXCOORD_0":69
					},
					"indices":3,
					"material":22
				}
			]
		},
		{
			"name":"Cube.072",
			"primitives":[
				{
					"attributes":{
						"POSITION":70,
						"NORMAL":71,
						"TEXCOORD_0":72
					},
					"indices":3,
					"material":23
				}
			]
		},
		{
			"name":"Cube.073",
			"primitives":[
				{
					"attributes":{
						"POSITION":73,
						"NORMAL":74,
						"TEXCOORD_0":75
					},
					"indices":3,
					"material":24
				}
			]
		},
		{
			"name":"Cube.074",
			"primitives":[
				{
					"attributes":{
						"POSITION":76,
						"NORMAL":77,
						"TEXCOORD_0":78
					},
					"indices":3,
					"material":25
				}
			]
		},
		{
			"name":"Cube.075",
			"primitives":[
				{
					"attributes":{
						"POSITION":79,
						"NORMAL":80,
						"TEXCOORD_0":81
					},
					"indices":3,
					"material":26
				}
			]
		},
		{
			"name":"Cube.076",
			"primitives":[
				{
					"attributes":{
						"POSITION":82,
						"NORMAL":83,
						"TEXCOORD_0":84
					},
					"indices":3,
					"material":27
				}
			]
		},
		{
			"name":"Cube.077",
			"primitives":[
				{
					"attributes":{
						"POSITION":85,
						"NORMAL":86,
						"TEXCOORD_0":87
					},
					"indices":3,
					"material":28
				}
			]
		},
		{
			"name":"Cube.078",
			"primitives":[
				{
					"attributes":{
						"POSITION":88,
						"NORMAL":89,
						"TEXCOORD_0":90
					},
					"indices":3,
					"material":29
				}
			]
		},
		{
			"name":"Cube.079",
			"primitives":[
				{
					"attributes":{
						"POSITION":91,
						"NORMAL":92,
						"TEXCOORD_0":93
					},
					"indices":3,
					"material":30
				}
			]
		},
		{
			"name":"Cube.080",
			"primitives":[
				{
					"attributes":{
						"POSITION":94,
						"NORMAL":95,
						"TEXCOORD_0":96
					},
					"indices":3,
					"material":31
				}
			]
		},
		{
			"name":"Cube.081",
			"primitives":[
				{
					"attributes":{
						"POSITION":97,
						"NORMAL":98,
						"TEXCOORD_0":99
					},
					"indices":3,
					"material":32
				}
			]
		},
		{
			"name":"Cube.082",
			"primitives":[
				{
					"attributes":{
						"POSITION":100,
						"NORMAL":101,
						"TEXCOORD_0":102
					},
					"indices":3,
					"material":33
				}
			]
		},
		{
			"name":"Cube.083",
			"primitives":[
				{
					"attributes":{
						"POSITION":103,
						"NORMAL":104,
						"TEXCOORD_0":105
					},
					"indices":3,
					"material":34
				}
			]
		},
		{
			"name":"Cube.084",
			"primitives":[
				{
					"attributes":{
						"POSITION":106,
						"NORMAL":107,
						"TEXCOORD_0":108
					},
					"indices":3,
					"material":35
				}
			]
		},
		{
			"name":"Cube.085",
			"primitives":[
				{
					"attributes":{
						"POSITION":109,
						"NORMAL":110,
						"TEXCOORD_0":111
					},
					"indices":3,
					"material":36
				}
			]
		},
		{
			"name":"Cube.086",
			"primitives":[
				{
					"attributes":{
						"POSITION":112,
						"NORMAL":113,
						"TEXCOORD_0":114
					},
					"indices":3,
					"material":37
				}
			]
		},
		{
			"name":"Cube.087",
			"primitives":[
				{
					"attributes":{
						"POSITION":115,
						"NORMAL":116,
						"TEXCOORD_0":117
					},
					"indices":3,
					"material":38
				}
			]
		},
		{
			"name":"Cube.088",
			"primitives":[
				{
					"attributes":{
						"POSITION":118,
						"NORMAL":119,
						"TEXCOORD_0":120
					},
					"indices":3,
					"material":39
				}
			]
		},
		{
			"name":"Cube.089",
			"primitives":[
				{
					"attributes":{
						"POSITION":121,
						"NORMAL":122,
						"TEXCOORD_0":123
					},
					"indices":3,
					"material":40
				}
			]
		},
		{
			"name":"Cube.090",
			"primitives":[
				{
					"attributes":{
						"POSITION":124,
						"NORMAL":125,
						"TEXCOORD_0":126
					},
					"indices":3,
					"material":41
				}
			]
		},
		{
			"name":"Cube.091",
			"primitives":[
				{
					"attributes":{
						"POSITION":127,
						"NORMAL":128,
						"TEXCOORD_0":129
					},
					"indices":3,
					"material":42
				}
			]
		},
		{
			"name":"Cube.092",
			"primitives":[
				{
					"attributes":{
						"POSITION":130,
						"NORMAL":131,
						"TEXCOORD_0":132
					},
					"indices":3,
					"material":43
				}
			]
		},
		{
			"name":"Cube.093",
			"primitives":[
				{
					"attributes":{
						"POSITION":133,
						"NORMAL":134,
						"TEXCOORD_0":135
					},
					"indices":3,
					"material":44
				}
			]
		},
		{
			"name":"Cube.094",
			"primitives":[
				{
					"attributes":{
						"POSITION":136,
						"NORMAL":137,
						"TEXCOORD_0":138
					},
					"indices":3,
					"material":45
				}
			]
		},
		{
			"name":"Cube.095",
			"primitives":[
				{
					"attributes":{
						"POSITION":139,
						"NORMAL":140,
						"TEXCOORD_0":141
					},
					"indices":3,
					"material":46
				}
			]
		},
		{
			"name":"Cube.096",
			"primitives":[
				{
					"attributes":{
						"POSITION":142,
						"NORMAL":143,
						"TEXCOORD_0":144
					},
					"indices":3,
					"material":47
				}
			]
		},
		{
			"name":"Cube.097",
			"primitives":[
				{
					"attributes":{
						"POSITION":145,
						"NORMAL":146,
						"TEXCOORD_0":147
					},
					"indices":3,
					"material":48
				}
			]
		},
		{
			"name":"Cube.098",
			"primitives":[
				{
					"attributes":{
						"POSITION":148,
						"NORMAL":149,
						"TEXCOORD_0":150
					},
					"indices":3,
					"material":49
				}
			]
		},
		{
			"name":"Cube.099",
			"primitives":[
				{
					"attributes":{
						"POSITION":151,
						"NORMAL":152,
						"TEXCOORD_0":153
					},
					"indices":3,
					"material":50
				}
			]
		},
		{
			"name":"Cube.100",
			"primitives":[
				{
					"attributes":{
						"POSITION":154,
						"NORMAL":155,
						"TEXCOORD_0":156
					},
					"indices":3,
					"material":51
				}
			]
		},
		{
			"name":"Cube.101",
			"primitives":[
				{
					"attributes":{
						"POSITION":157,
						"NORMAL":158,
						"TEXCOORD_0":159
					},
					"indices":3,
					"material":52
				}
			]
		},
		{
			"name":"Cube.102",
			"primitives":[
				{
					"attributes":{
						"POSITION":160,
						"NORMAL":161,
						"TEXCOORD_0":162
					},
					"indices":3,
					"material":53
				}
			]
		},
		{
			"name":"Cube.103",
			"primitives":[
				{
					"attributes":{
						"POSITION":163,
						"NORMAL":164,
						"TEXCOORD_0":165
					},
					"indices":3,
					"material":54
				}
			]
		},
		{
			"name":"Cube.104",
			"primitives":[
				{
					"attributes":{
						"POSITION":166,
						"NORMAL":167,
						"TEXCOORD_0":168
					},
					"indices":3,
					"material":55
				}
			]
		},
		{
			"name":"Cube.105",
			"primitives":[
				{
					"attributes":{
						"POSITION":169,
						"NORMAL":170,
						"TEXCOORD_0":171
					},
					"indices":3,
					"material":56
				}
			]
		},
		{
			"name":"Cube.106",
			"primitives":[
				{
					"attributes":{
						"POSITION":172,
						"NORMAL":173,
						"TEXCOORD_0":174
					},
					"indices":3,
					"material":57
				}
			]
		},
		{
			"name":"Cube.107",
			"primitives":[
				{
					"attributes":{
						"POSITION":175,
						"NORMAL":176,
						"TEXCOORD_0":177
					},
					"indices":3,
					"material":58
				}
			]
		},
		{
			"name":"Cube.108",
			"primitives":[
				{
					"attributes":{
						"POSITION":178,
						"NORMAL":179,
						"TEXCOORD_0":180
					},
					"indices":3,
					"material":59
				}
			]
		},
		{
			"name":"Cube.109",
			"primitives":[
				{
					"attributes":{
						"POSITION":181,
						"NORMAL":182,
						"TEXCOORD_0":183
					},
					"indices":3,
					"material":60
				}
			]
		},
		{
			"name":"Cube.110",
			"primitives":[
				{
					"attributes":{
						"POSITION":184,
						"NORMAL":185,
						"TEXCOORD_0":186
					},
					"indices":3,
					"material":61
				}
			]
		},
		{
			"name":"Cube.111",
			"primitives":[
				{
					"attributes":{
						"POSITION":187,
						"NORMAL":188,
						"TEXCOORD_0":189
					},
					"indices":3,
					"material":62
				}
			]
		},
		{
			"name":"Cube.112",
			"primitives":[
				{
					"attributes":{
						"POSITION":190,
						"NORMAL":191,
						"TEXCOORD_0":192
					},
					"indices":3,
					"material":63
				}
			]
		}
	],
	"textures":[
		{
			"sampler":0,
			"source":0
		},
		{
			"sampler":0,
			"source":1
		},
		{
			"sampler":0,
			"source":0
		}
	],
	"images":[
		{
			"mimeType":"image/jpeg",
			"name":"as",
			"uri":"as.jpg"
		},
		{
			"mimeType":"image/png",
			"name":"Umbrella",
			"uri":"Umbrella.png"
		}
	],
	"accessors":[
		{
			"bufferView":0,
			"componentType":5126,
			"count":24,
			"max":[
				1,
				1,
				1
			],
			"min":[
				-1,
				-1,
				-1
			],
			"type":"VEC3"
		},
		{
			"bufferView":1,
			"componentType":5126,
			"count":24,
			"type":"VEC3"
		},
		{
			"bufferView":2,
			"componentType":5126,
			"count":24,
			"type":"VEC2"
		},
		{
			"bufferView":3,
			"componentType":5123,
			"count":36,
			"type":"SCALAR"
		},
		{
			"bufferView":4,
			"componentType":5126,
			"count":24,
			"max":[
				1,
				1,
				-2.072127103805542
			],
			"min":[
				-1,
				-1,
				-4.072126865386963
			],
			"type":"VEC3"
		},
		{
			"bufferView":5,
			"componentType":5126,
			"count":24,
			"type":"VEC3"
		},
		{
			"bufferView":6,
			"componentType":5126,
			"count":24,
			"type":"VEC2"
		},
		{
			"bufferView":7,
			"componentType":5126,
			"count":24,
			"max":[
				1,
				1,
				-8.104717254638672
			],
			"min":[
				-1,
				-1,
				-10.104717254638672
			],
			"type":"VEC3"
		},
		{
			"bufferView":8,
			"componentType":5126,
			"count":24,
			"type":"VEC3"
		},
		{
			"bufferView":9,
			"componentType":5126,
			"count":24,
			"type":"VEC2"
		},
		{
			"bufferView":10,
			"componentType":5126,
			"count":24,
			"max":[
				1,
				1,
				-5.032589912414551
			],
			"min":[
				-1,
				-1,
				-7.032589912414551
			],
			"type":"VEC3"
		},
		{
			"bufferView":11,
			"componentType":5126,
			"count":24,
			"type":"VEC3"
		},
		{
			"bufferView":12,
			"componentType":5126,
			"count":24,
			"type":"VEC2"
		},
		{
			"bufferView":13,
			"componentType":5126,
			"count":24,
			"max":[
				1,
				3.8779120445251465,
				-5.032589912414551
			],
			"min":[
				-1,
				1.8779120445251465,
				-7.032589912414551
			],
			"type":"VEC3"
		},
		{
			"bufferView":14,
			"componentType":5126,
			"count":24,
			"type":"VEC3"
		},
		{
			"bufferView":15,
			"componentType":5126,
			"count":24,
			"type":"VEC2"
		},
		{
			"bufferView":16,
			"componentType":5126,
			"count":24,
			"max":[
				1,
				3.8779120445251465,
				-8.104717254638672
			],
			"min":[
				-1,
				1.8779120445251465,
				-10.104717254638672
			],
			"type":"VEC3"
		},
		{
			"bufferView":17,
			"componentType":5126,
			"count":24,
			"type":"VEC3"
		},
		{
			"bufferView":18,
			"componentType":5126,
			"count":24,
			"type":"VEC2"
		},
		{
			"bufferView":19,
			"componentType":5126,
			"count":24,
			"max":[
				1,
				3.8779120445251465,
				-2.072127103805542
			],
			"min":[
				-1,
				1.8779120445251465,
				-4.072126865386963
			],
			"type":"VEC3"
		},
		{
			"bufferView":20,
			"componentType":5126,
			"count":24,
			"type":"VEC3"
		},
		{
			"bufferView":21,
			"componentType":5126,
			"count":24,
			"type":"VEC2"
		},
		{
			"bufferView":22,
			"componentType":5126,
			"count":24,
			"max":[
				1,
				3.8779120445251465,
				1
			],
			"min":[
				-1,
				1.8779120445251465,
				-1
			],
			"type":"VEC3"
		},
		{
			"bufferView":23,
			"componentType":5126,
			"count":24,
			"type":"VEC3"
		},
		{
			"bufferView":24,
			"componentType":5126,
			"count":24,
			"type":"VEC2"
		},
		{
			"bufferView":25,
			"componentType":5126,
			"count":24,
			"max":[
				1,
				9.784961700439453,
				1
			],
			"min":[
				-1,
				7.784962177276611,
				-1
			],
			"type":"VEC3"
		},
		{
			"bufferView":26,
			"componentType":5126,
			"count":24,
			"type":"VEC3"
		},
		{
			"bufferView":27,
			"componentType":5126,
			"count":24,
			"type":"VEC2"
		},
		{
			"bufferView":28,
			"componentType":5126,
			"count":24,
			"max":[
				1,
				9.784961700439453,
				-2.072127103805542
			],
			"min":[
				-1,
				7.784962177276611,
				-4.072126865386963
			],
			"type":"VEC3"
		},
		{
			"bufferView":29,
			"componentType":5126,
			"count":24,
			"type":"VEC3"
		},
		{
			"bufferView":30,
			"componentType":5126,
			"count":24,
			"type":"VEC2"
		},
		{
			"bufferView":31,
			"componentType":5126,
			"count":24,
			"max":[
				1,
				9.784961700439453,
				-8.104717254638672
			],
			"min":[
				-1,
				7.784962177276611,
				-10.104717254638672
			],
			"type":"VEC3"
		},
		{
			"bufferView":32,
			"componentType":5126,
			"count":24,
			"type":"VEC3"
		},
		{
			"bufferView":33,
			"componentType":5126,
			"count":24,
			"type":"VEC2"
		},
		{
			"bufferView":34,
			"componentType":5126,
			"count":24,
			"max":[
				1,
				9.784961700439453,
				-5.032589912414551
			],
			"min":[
				-1,
				7.784962177276611,
				-7.032589912414551
			],
			"type":"VEC3"
		},
		{
			"bufferView":35,
			"componentType":5126,
			"count":24,
			"type":"VEC3"
		},
		{
			"bufferView":36,
			"componentType":5126,
			"count":24,
			"type":"VEC2"
		},
		{
			"bufferView":37,
			"componentType":5126,
			"count":24,
			"max":[
				1,
				6.907050132751465,
				-5.032589912414551
			],
			"min":[
				-1,
				4.907050132751465,
				-7.032589912414551
			],
			"type":"VEC3"
		},
		{
			"bufferView":38,
			"componentType":5126,
			"count":24,
			"type":"VEC3"
		},
		{
			"bufferView":39,
			"componentType":5126,
			"count":24,
			"type":"VEC2"
		},
		{
			"bufferView":40,
			"componentType":5126,
			"count":24,
			"max":[
				1,
				6.907050132751465,
				-8.104717254638672
			],
			"min":[
				-1,
				4.907050132751465,
				-10.104717254638672
			],
			"type":"VEC3"
		},
		{
			"bufferView":41,
			"componentType":5126,
			"count":24,
			"type":"VEC3"
		},
		{
			"bufferView":42,
			"componentType":5126,
			"count":24,
			"type":"VEC2"
		},
		{
			"bufferView":43,
			"componentType":5126,
			"count":24,
			"max":[
				1,
				6.907050132751465,
				-2.072127103805542
			],
			"min":[
				-1,
				4.907050132751465,
				-4.072126865386963
			],
			"type":"VEC3"
		},
		{
			"bufferView":44,
			"componentType":5126,
			"count":24,
			"type":"VEC3"
		},
		{
			"bufferView":45,
			"componentType":5126,
			"count":24,
			"type":"VEC2"
		},
		{
			"bufferView":46,
			"componentType":5126,
			"count":24,
			"max":[
				1,
				6.907050132751465,
				1
			],
			"min":[
				-1,
				4.907050132751465,
				-1
			],
			"type":"VEC3"
		},
		{
			"bufferView":47,
			"componentType":5126,
			"count":24,
			"type":"VEC3"
		},
		{
			"bufferView":48,
			"componentType":5126,
			"count":24,
			"type":"VEC2"
		},
		{
			"bufferView":49,
			"componentType":5126,
			"count":24,
			"max":[
				1,
				6.907050132751465,
				1
			],
			"min":[
				-1,
				4.907050132751465,
				-1
			],
			"type":"VEC3"
		},
		{
			"bufferView":50,
			"componentType":5126,
			"count":24,
			"type":"VEC3"
		},
		{
			"bufferView":51,
			"componentType":5126,
			"count":24,
			"type":"VEC2"
		},
		{
			"bufferView":52,
			"componentType":5126,
			"count":24,
			"max":[
				1,
				6.907050132751465,
				-2.072127103805542
			],
			"min":[
				-1,
				4.907050132751465,
				-4.072126865386963
			],
			"type":"VEC3"
		},
		{
			"bufferView":53,
			"componentType":5126,
			"count":24,
			"type":"VEC3"
		},
		{
			"bufferView":54,
			"componentType":5126,
			"count":24,
			"type":"VEC2"
		},
		{
			"bufferView":55,
			"componentType":5126,
			"count":24,
			"max":[
				1,
				6.907050132751465,
				-8.104717254638672
			],
			"min":[
				-1,
				4.907050132751465,
				-10.104717254638672
			],
			"type":"VEC3"
		},
		{
			"bufferView":56,
			"componentType":5126,
			"count":24,
			"type":"VEC3"
		},
		{
			"bufferView":57,
			"componentType":5126,
			"count":24,
			"type":"VEC2"
		},
		{
			"bufferView":58,
			"componentType":5126,
			"count":24,
			"max":[
				1,
				6.907050132751465,
				-5.032589912414551
			],
			"min":[
				-1,
				4.907050132751465,
				-7.032589912414551
			],
			"type":"VEC3"
		},
		{
			"bufferView":59,
			"componentType":5126,
			"count":24,
			"type":"VEC3"
		},
		{
			"bufferView":60,
			"componentType":5126,
			"count":24,
			"type":"VEC2"
		},
		{
			"bufferView":61,
			"componentType":5126,
			"count":24,
			"max":[
				1,
				9.784961700439453,
				-5.032589912414551
			],
			"min":[
				-1,
				7.784962177276611,
				-7.032589912414551
			],
			"type":"VEC3"
		},
		{
			"bufferView":62,
			"componentType":5126,
			"count":24,
			"type":"VEC3"
		},
		{
			"bufferView":63,
			"componentType":5126,
			"count":24,
			"type":"VEC2"
		},
		{
			"bufferView":64,
			"componentType":5126,
			"count":24,
			"max":[
				1,
				9.784961700439453,
				-8.104717254638672
			],
			"min":[
				-1,
				7.784962177276611,
				-10.104717254638672
			],
			"type":"VEC3"
		},
		{
			"bufferView":65,
			"componentType":5126,
			"count":24,
			"type":"VEC3"
		},
		{
			"bufferView":66,
			"componentType":5126,
			"count":24,
			"type":"VEC2"
		},
		{
			"bufferView":67,
			"componentType":5126,
			"count":24,
			"max":[
				1,
				9.784961700439453,
				-2.072127103805542
			],
			"min":[
				-1,
				7.784962177276611,
				-4.072126865386963
			],
			"type":"VEC3"
		},
		{
			"bufferView":68,
			"componentType":5126,
			"count":24,
			"type":"VEC3"
		},
		{
			"bufferView":69,
			"componentType":5126,
			"count":24,
			"type":"VEC2"
		},
		{
			"bufferView":70,
			"componentType":5126,
			"count":24,
			"max":[
				1,
				9.784961700439453,
				1
			],
			"min":[
				-1,
				7.784962177276611,
				-1
			],
			"type":"VEC3"
		},
		{
			"bufferView":71,
			"componentType":5126,
			"count":24,
			"type":"VEC3"
		},
		{
			"bufferView":72,
			"componentType":5126,
			"count":24,
			"type":"VEC2"
		},
		{
			"bufferView":73,
			"componentType":5126,
			"count":24,
			"max":[
				1,
				3.8779120445251465,
				1
			],
			"min":[
				-1,
				1.8779120445251465,
				-1
			],
			"type":"VEC3"
		},
		{
			"bufferView":74,
			"componentType":5126,
			"count":24,
			"type":"VEC3"
		},
		{
			"bufferView":75,
			"componentType":5126,
			"count":24,
			"type":"VEC2"
		},
		{
			"bufferView":76,
			"componentType":5126,
			"count":24,
			"max":[
				1,
				3.8779120445251465,
				-2.072127103805542
			],
			"min":[
				-1,
				1.8779120445251465,
				-4.072126865386963
			],
			"type":"VEC3"
		},
		{
			"bufferView":77,
			"componentType":5126,
			"count":24,
			"type":"VEC3"
		},
		{
			"bufferView":78,
			"componentType":5126,
			"count":24,
			"type":"VEC2"
		},
		{
			"bufferView":79,
			"componentType":5126,
			"count":24,
			"max":[
				1,
				3.8779120445251465,
				-8.104717254638672
			],
			"min":[
				-1,
				1.8779120445251465,
				-10.104717254638672
			],
			"type":"VEC3"
		},
		{
			"bufferView":80,
			"componentType":5126,
			"count":24,
			"type":"VEC3"
		},
		{
			"bufferView":81,
			"componentType":5126,
			"count":24,
			"type":"VEC2"
		},
		{
			"bufferView":82,
			"componentType":5126,
			"count":24,
			"max":[
				1,
				3.8779120445251465,
				-5.032589912414551
			],
			"min":[
				-1,
				1.8779120445251465,
				-7.032589912414551
			],
			"type":"VEC3"
		},
		{
			"bufferView":83,
			"componentType":5126,
			"count":24,
			"type":"VEC3"
		},
		{
			"bufferView":84,
			"componentType":5126,
			"count":24,
			"type":"VEC2"
		},
		{
			"bufferView":85,
			"componentType":5126,
			"count":24,
			"max":[
				1,
				1,
				-5.032589912414551
			],
			"min":[
				-1,
				-1,
				-7.032589912414551
			],
			"type":"VEC3"
		},
		{
			"bufferView":86,
			"componentType":5126,
			"count":24,
			"type":"VEC3"
		},
		{
			"bufferView":87,
			"componentType":5126,
			"count":24,
			"type":"VEC2"
		},
		{
			"bufferView":88,
			"componentType":5126,
			"count":24,
			"max":[
				1,
				1,
				-8.104717254638672
			],
			"min":[
				-1,
				-1,
				-10.104717254638672
			],
			"type":"VEC3"
		},
		{
			"bufferView":89,
			"componentType":5126,
			"count":24,
			"type":"VEC3"
		},
		{
			"bufferView":90,
			"componentType":5126,
			"count":24,
			"type":"VEC2"
		},
		{
			"bufferView":91,
			"componentType":5126,
			"count":24,
			"max":[
				1,
				1,
				-2.072127103805542
			],
			"min":[
				-1,
				-1,
				-4.072126865386963
			],
			"type":"VEC3"
		},
		{
			"bufferView":92,
			"componentType":5126,
			"count":24,
			"type":"VEC3"
		},
		{
			"bufferView":93,
			"componentType":5126,
			"count":24,
			"type":"VEC2"
		},
		{
			"bufferView":94,
			"componentType":5126,
			"count":24,
			"max":[
				1,
				1,
				1
			],
			"min":[
				-1,
				-1,
				-1
			],
			"type":"VEC3"
		},
		{
			"bufferView":95,
			"componentType":5126,
			"count":24,
			"type":"VEC3"
		},
		{
			"bufferView":96,
			"componentType":5126,
			"count":24,
			"type":"VEC2"
		},
		{
			"bufferView":97,
			"componentType":5126,
			"count":24,
			"max":[
				1,
				6.907050132751465,
				1
			],
			"min":[
				-1,
				4.907050132751465,
				-1
			],
			"type":"VEC3"
		},
		{
			"bufferView":98,
			"componentType":5126,
			"count":24,
			"type":"VEC3"
		},
		{
			"bufferView":99,
			"componentType":5126,
			"count":24,
			"type":"VEC2"
		},
		{
			"bufferView":100,
			"componentType":5126,
			"count":24,
			"max":[
				1,
				6.907050132751465,
				-2.072127103805542
			],
			"min":[
				-1,
				4.907050132751465,
				-4.072126865386963
			],
			"type":"VEC3"
		},
		{
			"bufferView":101,
			"componentType":5126,
			"count":24,
			"type":"VEC3"
		},
		{
			"bufferView":102,
			"componentType":5126,
			"count":24,
			"type":"VEC2"
		},
		{
			"bufferView":103,
			"componentType":5126,
			"count":24,
			"max":[
				1,
				6.907050132751465,
				-8.104717254638672
			],
			"min":[
				-1,
				4.907050132751465,
				-10.104717254638672
			],
			"type":"VEC3"
		},
		{
			"bufferView":104,
			"componentType":5126,
			"count":24,
			"type":"VEC3"
		},
		{
			"bufferView":105,
			"componentType":5126,
			"count":24,
			"type":"VEC2"
		},
		{
			"bufferView":106,
			"componentType":5126,
			"count":24,
			"max":[
				1,
				6.907050132751465,
				-5.032589912414551
			],
			"min":[
				-1,
				4.907050132751465,
				-7.032589912414551
			],
			"type":"VEC3"
		},
		{
			"bufferView":107,
			"componentType":5126,
			"count":24,
			"type":"VEC3"
		},
		{
			"bufferView":108,
			"componentType":5126,
			"count":24,
			"type":"VEC2"
		},
		{
			"bufferView":109,
			"componentType":5126,
			"count":24,
			"max":[
				1,
				9.784961700439453,
				-5.032589912414551
			],
			"min":[
				-1,
				7.784962177276611,
				-7.032589912414551
			],
			"type":"VEC3"
		},
		{
			"bufferView":110,
			"componentType":5126,
			"count":24,
			"type":"VEC3"
		},
		{
			"bufferView":111,
			"componentType":5126,
			"count":24,
			"type":"VEC2"
		},
		{
			"bufferView":112,
			"componentType":5126,
			"count":24,
			"max":[
				1,
				9.784961700439453,
				-8.104717254638672
			],
			"min":[
				-1,
				7.784962177276611,
				-10.104717254638672
			],
			"type":"VEC3"
		},
		{
			"bufferView":113,
			"componentType":5126,
			"count":24,
			"type":"VEC3"
		},
		{
			"bufferView":114,
			"componentType":5126,
			"count":24,
			"type":"VEC2"
		},
		{
			"bufferView":115,
			"componentType":5126,
			"count":24,
			"max":[
				1,
				9.784961700439453,
				-2.072127103805542
			],
			"min":[
				-1,
				7.784962177276611,
				-4.072126865386963
			],
			"type":"VEC3"
		},
		{
			"bufferView":116,
			"componentType":5126,
			"count":24,
			"type":"VEC3"
		},
		{
			"bufferView":117,
			"componentType":5126,
			"count":24,
			"type":"VEC2"
		},
		{
			"bufferView":118,
			"componentType":5126,
			"count":24,
			"max":[
				1,
				9.784961700439453,
				1
			],
			"min":[
				-1,
				7.784962177276611,
				-1
			],
			"type":"VEC3"
		},
		{
			"bufferView":119,
			"componentType":5126,
			"count":24,
			"type":"VEC3"
		},
		{
			"bufferView":120,
			"componentType":5126,
			"count":24,
			"type":"VEC2"
		},
		{
			"bufferView":121,
			"componentType":5126,
			"count":24,
			"max":[
				1,
				3.8779120445251465,
				1
			],
			"min":[
				-1,
				1.8779120445251465,
				-1
			],
			"type":"VEC3"
		},
		{
			"bufferView":122,
			"componentType":5126,
			"count":24,
			"type":"VEC3"
		},
		{
			"bufferView":123,
			"componentType":5126,
			"count":24,
			"type":"VEC2"
		},
		{
			"bufferView":124,
			"componentType":5126,
			"count":24,
			"max":[
				1,
				3.8779120445251465,
				-2.072127103805542
			],
			"min":[
				-1,
				1.8779120445251465,
				-4.072126865386963
			],
			"type":"VEC3"
		},
		{
			"bufferView":125,
			"componentType":5126,
			"count":24,
			"type":"VEC3"
		},
		{
			"bufferView":126,
			"componentType":5126,
			"count":24,
			"type":"VEC2"
		},
		{
			"bufferView":127,
			"componentType":5126,
			"count":24,
			"max":[
				1,
				3.8779120445251465,
				-8.104717254638672
			],
			"min":[
				-1,
				1.8779120445251465,
				-10.104717254638672
			],
			"type":"VEC3"
		},
		{
			"bufferView":128,
			"componentType":5126,
			"count":24,
			"type":"VEC3"
		},
		{
			"bufferView":129,
			"componentType":5126,
			"count":24,
			"type":"VEC2"
		},
		{
			"bufferView":130,
			"componentType":5126,
			"count":24,
			"max":[
				1,
				1,
				1
			],
			"min":[
				-1,
				-1,
				-1
			],
			"type":"VEC3"
		},
		{
			"bufferView":131,
			"componentType":5126,
			"count":24,
			"type":"VEC3"
		},
		{
			"bufferView":132,
			"componentType":5126,
			"count":24,
			"type":"VEC2"
		},
		{
			"bufferView":133,
			"componentType":5126,
			"count":24,
			"max":[
				1,
				1,
				-2.072127103805542
			],
			"min":[
				-1,
				-1,
				-4.072126865386963
			],
			"type":"VEC3"
		},
		{
			"bufferView":134,
			"componentType":5126,
			"count":24,
			"type":"VEC3"
		},
		{
			"bufferView":135,
			"componentType":5126,
			"count":24,
			"type":"VEC2"
		},
		{
			"bufferView":136,
			"componentType":5126,
			"count":24,
			"max":[
				1,
				1,
				-8.104717254638672
			],
			"min":[
				-1,
				-1,
				-10.104717254638672
			],
			"type":"VEC3"
		},
		{
			"bufferView":137,
			"componentType":5126,
			"count":24,
			"type":"VEC3"
		},
		{
			"bufferView":138,
			"componentType":5126,
			"count":24,
			"type":"VEC2"
		},
		{
			"bufferView":139,
			"componentType":5126,
			"count":24,
			"max":[
				1,
				1,
				-5.032589912414551
			],
			"min":[
				-1,
				-1,
				-7.032589912414551
			],
			"type":"VEC3"
		},
		{
			"bufferView":140,
			"componentType":5126,
			"count":24,
			"type":"VEC3"
		},
		{
			"bufferView":141,
			"componentType":5126,
			"count":24,
			"type":"VEC2"
		},
		{
			"bufferView":142,
			"componentType":5126,
			"count":24,
			"max":[
				1,
				3.8779120445251465,
				-5.032589912414551
			],
			"min":[
				-1,
				1.8779120445251465,
				-7.032589912414551
			],
			"type":"VEC3"
		},
		{
			"bufferView":143,
			"componentType":5126,
			"count":24,
			"type":"VEC3"
		},
		{
			"bufferView":144,
			"componentType":5126,
			"count":24,
			"type":"VEC2"
		},
		{
			"bufferView":145,
			"componentType":5126,
			"count":24,
			"max":[
				1,
				1,
				-5.032589912414551
			],
			"min":[
				-1,
				-1,
				-7.032589912414551
			],
			"type":"VEC3"
		},
		{
			"bufferView":146,
			"componentType":5126,
			"count":24,
			"type":"VEC3"
		},
		{
			"bufferView":147,
			"componentType":5126,
			"count":24,
			"type":"VEC2"
		},
		{
			"bufferView":148,
			"componentType":5126,
			"count":24,
			"max":[
				1,
				3.8779120445251465,
				-5.032589912414551
			],
			"min":[
				-1,
				1.8779120445251465,
				-7.032589912414551
			],
			"type":"VEC3"
		},
		{
			"bufferView":149,
			"componentType":5126,
			"count":24,
			"type":"VEC3"
		},
		{
			"bufferView":150,
			"componentType":5126,
			"count":24,
			"type":"VEC2"
		},
		{
			"bufferView":151,
			"componentType":5126,
			"count":24,
			"max":[
				1,
				3.8779120445251465,
				-8.104717254638672
			],
			"min":[
				-1,
				1.8779120445251465,
				-10.104717254638672
			],
			"type":"VEC3"
		},
		{
			"bufferView":152,
			"componentType":5126,
			"count":24,
			"type":"VEC3"
		},
		{
			"bufferView":153,
			"componentType":5126,
			"count":24,
			"type":"VEC2"
		},
		{
			"bufferView":154,
			"componentType":5126,
			"count":24,
			"max":[
				1,
				3.8779120445251465,
				-2.072127103805542
			],
			"min":[
				-1,
				1.8779120445251465,
				-4.072126865386963
			],
			"type":"VEC3"
		},
		{
			"bufferView":155,
			"componentType":5126,
			"count":24,
			"type":"VEC3"
		},
		{
			"bufferView":156,
			"componentType":5126,
			"count":24,
			"type":"VEC2"
		},
		{
			"bufferView":157,
			"componentType":5126,
			"count":24,
			"max":[
				1,
				3.8779120445251465,
				1
			],
			"min":[
				-1,
				1.8779120445251465,
				-1
			],
			"type":"VEC3"
		},
		{
			"bufferView":158,
			"componentType":5126,
			"count":24,
			"type":"VEC3"
		},
		{
			"bufferView":159,
			"componentType":5126,
			"count":24,
			"type":"VEC2"
		},
		{
			"bufferView":160,
			"componentType":5126,
			"count":24,
			"max":[
				1,
				9.784961700439453,
				1
			],
			"min":[
				-1,
				7.784962177276611,
				-1
			],
			"type":"VEC3"
		},
		{
			"bufferView":161,
			"componentType":5126,
			"count":24,
			"type":"VEC3"
		},
		{
			"bufferView":162,
			"componentType":5126,
			"count":24,
			"type":"VEC2"
		},
		{
			"bufferView":163,
			"componentType":5126,
			"count":24,
			"max":[
				1,
				9.784961700439453,
				-2.072127103805542
			],
			"min":[
				-1,
				7.784962177276611,
				-4.072126865386963
			],
			"type":"VEC3"
		},
		{
			"bufferView":164,
			"componentType":5126,
			"count":24,
			"type":"VEC3"
		},
		{
			"bufferView":165,
			"componentType":5126,
			"count":24,
			"type":"VEC2"
		},
		{
			"bufferView":166,
			"componentType":5126,
			"count":24,
			"max":[
				1,
				1,
				-8.104717254638672
			],
			"min":[
				-1,
				-1,
				-10.104717254638672
			],
			"type":"VEC3"
		},
		{
			"bufferView":167,
			"componentType":5126,
			"count":24,
			"type":"VEC3"
		},
		{
			"bufferView":168,
			"componentType":5126,
			"count":24,
			"type":"VEC2"
		},
		{
			"bufferView":169,
			"componentType":5126,
			"count":24,
			"max":[
				1,
				1,
				-2.072127103805542
			],
			"min":[
				-1,
				-1,
				-4.072126865386963
			],
			"type":"VEC3"
		},
		{
			"bufferView":170,
			"componentType":5126,
			"count":24,
			"type":"VEC3"
		},
		{
			"bufferView":171,
			"componentType":5126,
			"count":24,
			"type":"VEC2"
		},
		{
			"bufferView":172,
			"componentType":5126,
			"count":24,
			"max":[
				1,
				9.784961700439453,
				-8.104717254638672
			],
			"min":[
				-1,
				7.784962177276611,
				-10.104717254638672
			],
			"type":"VEC3"
		},
		{
			"bufferView":173,
			"componentType":5126,
			"count":24,
			"type":"VEC3"
		},
		{
			"bufferView":174,
			"componentType":5126,
			"count":24,
			"type":"VEC2"
		},
		{
			"bufferView":175,
			"componentType":5126,
			"count":24,
			"max":[
				1,
				9.784961700439453,
				-5.032589912414551
			],
			"min":[
				-1,
				7.784962177276611,
				-7.032589912414551
			],
			"type":"VEC3"
		},
		{
			"bufferView":176,
			"componentType":5126,
			"count":24,
			"type":"VEC3"
		},
		{
			"bufferView":177,
			"componentType":5126,
			"count":24,
			"type":"VEC2"
		},
		{
			"bufferView":178,
			"componentType":5126,
			"count":24,
			"max":[
				1,
				6.907050132751465,
				-5.032589912414551
			],
			"min":[
				-1,
				4.907050132751465,
				-7.032589912414551
			],
			"type":"VEC3"
		},
		{
			"bufferView":179,
			"componentType":5126,
			"count":24,
			"type":"VEC3"
		},
		{
			"bufferView":180,
			"componentType":5126,
			"count":24,
			"type":"VEC2"
		},
		{
			"bufferView":181,
			"componentType":5126,
			"count":24,
			"max":[
				1,
				6.907050132751465,
				-8.104717254638672
			],
			"min":[
				-1,
				4.907050132751465,
				-10.104717254638672
			],
			"type":"VEC3"
		},
		{
			"bufferView":182,
			"componentType":5126,
			"count":24,
			"type":"VEC3"
		},
		{
			"bufferView":183,
			"componentType":5126,
			"count":24,
			"type":"VEC2"
		},
		{
			"bufferView":184,
			"componentType":5126,
			"count":24,
			"max":[
				1,
				6.907050132751465,
				-2.072127103805542
			],
			"min":[
				-1,
				4.907050132751465,
				-4.072126865386963
			],
			"type":"VEC3"
		},
		{
			"bufferView":185,
			"componentType":5126,
			"count":24,
			"type":"VEC3"
		},
		{
			"bufferView":186,
			"componentType":5126,
			"count":24,
			"type":"VEC2"
		},
		{
			"bufferView":187,
			"componentType":5126,
			"count":24,
			"max":[
				1,
				6.907050132751465,
				1
			],
			"min":[
				-1,
				4.907050132751465,
				-1
			],
			"type":"VEC3"
		},
		{
			"bufferView":188,
			"componentType":5126,
			"count":24,
			"type":"VEC3"
		},
		{
			"bufferView":189,
			"componentType":5126,
			"count":24,
			"type":"VEC2"
		},
		{
			"bufferView":190,
			"componentType":5126,
			"count":24,
			"max":[
				1,
				1,
				1
			],
			"min":[
				-1,
				-1,
				-1
			],
			"type":"VEC3"
		},
		{
			"bufferView":191,
			"componentType":5126,
			"count":24,
			"type":"VEC3"
		},
		{
			"bufferView":192,
			"componentType":5126,
			"count":24,
			"type":"VEC2"
		}
	],
	"bufferViews":[
		{
			"buffer":0,
			"byteLength":288,
			"byteOffset":0,
			"target":34962
		},
		{
			"buffer":0,
			"byteLength":288,
			"byteOffset":288,
			"target":34962
		},
		{
			"buffer":0,
			"byteLength":192,
			"byteOffset":576,
			"target":34962
		},
		{
			"buffer":0,
			"byteLength":72,
			"byteOffset":768,
			"target":34963
		},
		{
			"buffer":0,
			"byteLength":288,
			"byteOffset":840,
			"target":34962
		},
		{
			"buffer":0,
			"byteLength":288,
			"byteOffset":1128,
			"target":34962
		},
		{
			"buffer":0,
			"byteLength":192,
			"byteOffset":1416,
			"target":34962
		},
		{
			"buffer":0,
			"byteLength":288,
			"byteOffset":1608,
			"target":34962
		},
		{
			"buffer":0,
			"byteLength":288,
			"byteOffset":1896,
			"target":34962
		},
		{
			"buffer":0,
			"byteLength":192,
			"byteOffset":2184,
			"target":34962
		},
		{
			"buffer":0,
			"byteLength":288,
			"byteOffset":2376,
			"target":34962
		},
		{
			"buffer":0,
			"byteLength":288,
			"byteOffset":2664,
			"target":34962
		},
		{
			"buffer":0,
			"byteLength":192,
			"byteOffset":2952,
			"target":34962
		},
		{
			"buffer":0,
			"byteLength":288,
			"byteOffset":3144,
			"target":34962
		},
		{
			"buffer":0,
			"byteLength":288,
			"byteOffset":3432,
			"target":34962
		},
		{
			"buffer":0,
			"byteLength":192,
			"byteOffset":3720,
			"target":34962
		},
		{
			"buffer":0,
			"byteLength":288,
			"byteOffset":3912,
			"target":34962
		},
		{
			"buffer":0,
			"byteLength":288,
			"byteOffset":4200,
			"target":34962
		},
		{
			"buffer":0,
			"byteLength":192,
			"byteOffset":4488,
			"target":34962
		},
		{
			"buffer":0,
			"byteLength":288,
			"byteOffset":4680,
			"target":34962
		},
		{
			"buffer":0,
			"byteLength":288,
			"byteOffset":4968,
			"target":34962
		},
		{
			"buffer":0,
			"byteLength":192,
			"byteOffset":5256,
			"target":34962
		},
		{
			"buffer":0,
			"byteLength":288,
			"byteOffset":5448,
			"target":34962
		},
		{
			"buffer":0,
			"byteLength":288,
			"byteOffset":5736,
			"target":34962
		},
		{
			"buffer":0,
			"byteLength":192,
			"byteOffset":6024,
			"target":34962
		},
		{
			"buffer":0,
			"byteLength":288,
			"byteOffset":6216,
			"target":34962
		},
		{
			"buffer":0,
			"byteLength":288,
			"byteOffset":6504,
			"target":34962
		},
		{
			"buffer":0,
			"byteLength":192,
			"byteOffset":6792,
			"target":34962
		},
		{
			"buffer":0,
			"byteLength":288,
			"byteOffset":6984,
			"target":34962
		},
		{
			"buffer":0,
			"byteLength":288,
			"byteOffset":7272,
			"target":34962
		},
		{
			"buffer":0,
			"byteLength":192,
			"byteOffset":7560,
			"target":34962
		},
		{
			"buffer":0,
			"byteLength":288,
			"byteOffset":7752,
			"target":34962
		},
		{
			"buffer":0,
			"byteLength":288,
			"byteOffset":8040,
			"target":34962
		},
		{
			"buffer":0,
			"byteLength":192,
			"byteOffset":8328,
			"target":34962
		},
		{
			"buffer":0,
			"byteLength":288,
			"byteOffset":8520,
			"target":34962
		},
		{
			"buffer":0,
			"byteLength":288,
			"byteOffset":8808,
			"target":34962
		},
		{
			"buffer":0,
			"byteLength":192,
			"byteOffset":9096,
			"target":34962
		},
		{
			"buffer":0,
			"byteLength":288,
			"byteOffset":9288,
			"target":34962
		},
		{
			"buffer":0,
			"byteLength":288,
			"byteOffset":9576,
			"target":34962
		},
		{
			"buffer":0,
			"byteLength":192,
			"byteOffset":9864,
			"target":34962
		},
		{
			"buffer":0,
			"byteLength":288,
			"byteOffset":10056,
			"target":34962
		},
		{
			"buffer":0,
			"byteLength":288,
			"byteOffset":10344,
			"target":34962
		},
		{
			"buffer":0,
			"byteLength":192,
			"byteOffset":10632,
			"target":34962
		},
		{
			"buffer":0,
			"byteLength":288,
			"byteOffset":10824,
			"target":34962
		},
		{
			"buffer":0,
			"byteLength":288,
			"byteOffset":11112,
			"target":34962
		},
		{
			"buffer":0,
			"byteLength":192,
			"byteOffset":11400,
			"target":34962
		},
		{
			"buffer":0,
			"byteLength":288,
			"byteOffset":11592,
			"target":34962
		},
		{
			"buffer":0,
			"byteLength":288,
			"byteOffset":11880,
			"target":34962
		},
		{
			"buffer":0,
			"byteLength":192,
			"byteOffset":12168,
			"target":34962
		},
		{
			"buffer":0,
			"byteLength":288,
			"byteOffset":12360,
			"target":34962
		},
		{
			"buffer":0,
			"byteLength":288,
			"byteOffset":12648,
			"target":34962
		},
		{
			"buffer":0,
			"byteLength":192,
			"byteOffset":12936,
			"target":34962
		},
		{
			"buffer":0,
			"byteLength":288,
			"byteOffset":13128,
			"target":34962
		},
		{
			"buffer":0,
			"byteLength":288,
			"byteOffset":13416,
			"target":34962
		},
		{
			"buffer":0,
			"byteLength":192,
			"byteOffset":13704,
			"target":34962
		},
		{
			"buffer":0,
			"byteLength":288,
			"byteOffset":13896,
			"target":34962
		},
		{
			"buffer":0,
			"byteLength":288,
			"byteOffset":14184,
			"target":34962
		},
		{
			"buffer":0,
			"byteLength":192,
			"byteOffset":14472,
			"target":34962
		},
		{
			"buffer":0,
			"byteLength":288,
			"byteOffset":14664,
			"target":34962
		},
		{
			"buffer":0,
			"byteLength":288,
			"byteOffset":14952,
			"target":34962
		},
		{
			"buffer":0,
			"byteLength":192,
			"byteOffset":15240,
			"target":34962
		},
		{
			"buffer":0,
			"byteLength":288,
			"byteOffset":15432,
			"target":34962
		},
		{
			"buffer":0,
			"byteLength":288,
			"byteOffset":15720,
			"target":34962
		},
		{
			"buffer":0,
			"byteLength":192,
			"byteOffset":16008,
			"target":34962
		},
		{
			"buffer":0,
			"byteLength":288,
			"byteOffset":16200,
			"target":34962
		},
		{
			"buffer":0,
			"byteLength":288,
			"byteOffset":16488,
			"target":34962
		},
		{
			"buffer":0,
			"byteLength":192,
			"byteOffset":16776,
			"target":34962
		},
		{
			"buffer":0,
			"byteLength":288,
			"byteOffset":16968,
			"target":34962
		},
		{
			"buffer":0,
			"byteLength":288,
			"byteOffset":17256,
			"target":34962
		},
		{
			"buffer":0,
			"byteLength":192,
			"byteOffset":17544,
			"target":34962
		},
		{
			"buffer":0,
			"byteLength":288,
			"byteOffset":17736,
			"target":34962
		},
		{
			"buffer":0,
			"byteLength":288,
			"byteOffset":18024,
			"target":34962
		},
		{
			"buffer":0,
			"byteLength":192,
			"byteOffset":18312,
			"target":34962
		},
		{
			"buffer":0,
			"byteLength":288,
			"byteOffset":18504,
			"target":34962
		},
		{
			"buffer":0,
			"byteLength":288,
			"byteOffset":18792,
			"target":34962
		},
		{
			"buffer":0,
			"byteLength":192,
			"byteOffset":19080,
			"target":34962
		},
		{
			"buffer":0,
			"byteLength":288,
			"byteOffset":19272,
			"target":34962
		},
		{
			"buffer":0,
			"byteLength":288,
			"byteOffset":19560,
			"target":34962
		},
		{
			"buffer":0,
			"byteLength":192,
			"byteOffset":19848,
			"target":34962
		},
		{
			"buffer":0,
			"byteLength":288,
			"byteOffset":20040,
			"target":34962
		},
		{
			"buffer":0,
			"byteLength":288,
			"byteOffset":20328,
			"target":34962
		},
		{
			"buffer":0,
			"byteLength":192,
			"byteOffset":20616,
			"target":34962
		},
		{
			"buffer":0,
			"byteLength":288,
			"byteOffset":20808,
			"target":34962
		},
		{
			"buffer":0,
			"byteLength":288,
			"byteOffset":21096,
			"target":34962
		},
		{
			"buffer":0,
			"byteLength":192,
			"byteOffset":21384,
			"target":34962
		},
		{
			"buffer":0,
			"byteLength":288,
			"byteOffset":21576,
			"target":34962
		},
		{
			"buffer":0,
			"byteLength":288,
			"byteOffset":21864,
			"target":34962
		},
		{
			"buffer":0,
			"byteLength":192,
			"byteOffset":22152,
			"target":34962
		},
		{
			"buffer":0,
			"byteLength":288,
			"byteOffset":22344,
			"target":34962
		},
		{
			"buffer":0,
			"byteLength":288,
			"byteOffset":22632,
			"target":34962
		},
		{
			"buffer":0,
			"byteLength":192,
			"byteOffset":22920,
			"target":34962
		},
		{
			"buffer":0,
			"byteLength":288,
			"byteOffset":23112,
			"target":34962
		},
		{
			"buffer":0,
			"byteLength":288,
			"byteOffset":23400,
			"target":34962
		},
		{
			"buffer":0,
			"byteLength":192,
			"byteOffset":23688,
			"target":34962
		},
		{
			"buffer":0,
			"byteLength":288,
			"byteOffset":23880,
			"target":34962
		},
		{
			"buffer":0,
			"byteLength":288,
			"byteOffset":24168,
			"target":34962
		},
		{
			"buffer":0,
			"byteLength":192,
			"byteOffset":24456,
			"target":34962
		},
		{
			"buffer":0,
			"byteLength":288,
			"byteOffset":24648,
			"target":34962
		},
		{
			"buffer":0,
			"byteLength":288,
			"byteOffset":24936,
			"target":34962
		},
		{
			"buffer":0,
			"byteLength":192,
			"byteOffset":25224,
			"target":34962
		},
		{
			"buffer":0,
			"byteLength":288,
			"byteOffset":25416,
			"target":34962
		},
		{
			"buffer":0,
			"byteLength":288,
			"byteOffset":25704,
			"target":34962
		},
		{
			"buffer":0,
			"byteLength":192,
			"byteOffset":25992,
			"target":34962
		},
		{
			"buffer":0,
			"byteLength":288,
			"byteOffset":26184,
			"target":34962
		},
		{
			"buffer":0,
			"byteLength":288,
			"byteOffset":26472,
			"target":34962
		},
		{
			"buffer":0,
			"byteLength":192,
			"byteOffset":26760,
			"target":34962
		},
		{
			"buffer":0,
			"byteLength":288,
			"byteOffset":26952,
			"target":34962
		},
		{
			"buffer":0,
			"byteLength":288,
			"byteOffset":27240,
			"target":34962
		},
		{
			"buffer":0,
			"byteLength":192,
			"byteOffset":27528,
			"target":34962
		},
		{
			"buffer":0,
			"byteLength":288,
			"byteOffset":27720,
			"target":34962
		},
		{
			"buffer":0,
			"byteLength":288,
			"byteOffset":28008,
			"target":34962
		},
		{
			"buffer":0,
			"byteLength":192,
			"byteOffset":28296,
			"target":34962
		},
		{
			"buffer":0,
			"byteLength":288,
			"byteOffset":28488,
			"target":34962
		},
		{
			"buffer":0,
			"byteLength":288,
			"byteOffset":28776,
			"target":34962
		},
		{
			"buffer":0,
			"byteLength":192,
			"byteOffset":29064,
			"target":34962
		},
		{
			"buffer":0,
			"byteLength":288,
			"byteOffset":29256,
			"target":34962
		},
		{
			"buffer":0,
			"byteLength":288,
			"byteOffset":29544,
			"target":34962
		},
		{
			"buffer":0,
			"byteLength":192,
			"byteOffset":29832,
			"target":34962
		},
		{
			"buffer":0,
			"byteLength":288,
			"byteOffset":30024,
			"target":34962
		},
		{
			"buffer":0,
			"byteLength":288,
			"byteOffset":30312,
			"target":34962
		},
		{
			"buffer":0,
			"byteLength":192,
			"byteOffset":30600,
			"target":34962
		},
		{
			"buffer":0,
			"byteLength":288,
			"byteOffset":30792,
			"target":34962
		},
		{
			"buffer":0,
			"byteLength":288,
			"byteOffset":31080,
			"target":34962
		},
		{
			"buffer":0,
			"byteLength":192,
			"byteOffset":31368,
			"target":34962
		},
		{
			"buffer":0,
			"byteLength":288,
			"byteOffset":31560,
			"target":34962
		},
		{
			"buffer":0,
			"byteLength":288,
			"byteOffset":31848,
			"target":34962
		},
		{
			"buffer":0,
			"byteLength":192,
			"byteOffset":32136,
			"target":34962
		},
		{
			"buffer":0,
			"byteLength":288,
			"byteOffset":32328,
			"target":34962
		},
		{
			"buffer":0,
			"byteLength":288,
			"byteOffset":32616,
			"target":34962
		},
		{
			"buffer":0,
			"byteLength":192,
			"byteOffset":32904,
			"target":34962
		},
		{
			"buffer":0,
			"byteLength":288,
			"byteOffset":33096,
			"target":34962
		},
		{
			"buffer":0,
			"byteLength":288,
			"byteOffset":33384,
			"target":34962
		},
		{
			"buffer":0,
			"byteLength":192,
			"byteOffset":33672,
			"target":34962
		},
		{
			"buffer":0,
			"byteLength":288,
			"byteOffset":33864,
			"target":34962
		},
		{
			"buffer":0,
			"byteLength":288,
			"byteOffset":34152,
			"target":34962
		},
		{
			"buffer":0,
			"byteLength":192,
			"byteOffset":34440,
			"target":34962
		},
		{
			"buffer":0,
			"byteLength":288,
			"byteOffset":34632,
			"target":34962
		},
		{
			"buffer":0,
			"byteLength":288,
			"byteOffset":34920,
			"target":34962
		},
		{
			"buffer":0,
			"byteLength":192,
			"byteOffset":35208,
			"target":34962
		},
		{
			"buffer":0,
			"byteLength":288,
			"byteOffset":35400,
			"target":34962
		},
		{
			"buffer":0,
			"byteLength":288,
			"byteOffset":35688,
			"target":34962
		},
		{
			"buffer":0,
			"byteLength":192,
			"byteOffset":35976,
			"target":34962
		},
		{
			"buffer":0,
			"byteLength":288,
			"byteOffset":36168,
			"target":34962
		},
		{
			"buffer":0,
			"byteLength":288,
			"byteOffset":36456,
			"target":34962
		},
		{
			"buffer":0,
			"byteLength":192,
			"byteOffset":36744,
			"target":34962
		},
		{
			"buffer":0,
			"byteLength":288,
			"byteOffset":36936,
			"target":34962
		},
		{
			"buffer":0,
			"byteLength":288,
			"byteOffset":37224,
			"target":34962
		},
		{
			"buffer":0,
			"byteLength":192,
			"byteOffset":37512,
			"target":34962
		},
		{
			"buffer":0,
			"byteLength":288,
			"byteOffset":37704,
			"target":34962
		},
		{
			"buffer":0,
			"byteLength":288,
			"byteOffset":37992,
			"target":34962
		},
		{
			"buffer":0,
			"byteLength":192,
			"byteOffset":38280,
			"target":34962
		},
		{
			"buffer":0,
			"byteLength":288,
			"byteOffset":38472,
			"target":34962
		},
		{
			"buffer":0,
			"byteLength":288,
			"byteOffset":38760,
			"target":34962
		},
		{
			"buffer":0,
			"byteLength":192,
			"byteOffset":39048,
			"target":34962
		},
		{
			"buffer":0,
			"byteLength":288,
			"byteOffset":39240,
			"target":34962
		},
		{
			"buffer":0,
			"byteLength":288,
			"byteOffset":39528,
			"target":34962
		},
		{
			"buffer":0,
			"byteLength":192,
			"byteOffset":39816,
			"target":34962
		},
		{
			"buffer":0,
			"byteLength":288,
			"byteOffset":40008,
			"target":34962
		},
		{
			"buffer":0,
			"byteLength":288,
			"byteOffset":40296,
			"target":34962
		},
		{
			"buffer":0,
			"byteLength":192,
			"byteOffset":40584,
			"target":34962
		},
		{
			"buffer":0,
			"byteLength":288,
			"byteOffset":40776,
			"target":34962
		},
		{
			"buffer":0,
			"byteLength":288,
			"byteOffset":41064,
			"target":34962
		},
		{
			"buffer":0,
			"byteLength":192,
			"byteOffset":41352,
			"target":34962
		},
		{
			"buffer":0,
			"byteLength":288,
			"byteOffset":41544,
			"target":34962
		},
		{
			"buffer":0,
			"byteLength":288,
			"byteOffset":41832,
			"target":34962
		},
		{
			"buffer":0,
			"byteLength":192,
			"byteOffset":42120,
			"target":34962
		},
		{
			"buffer":0,
			"byteLength":288,
			"byteOffset":42312,
			"target":34962
		},
		{
			"buffer":0,
			"byteLength":288,
			"byteOffset":42600,
			"target":34962
		},
		{
			"buffer":0,
			"byteLength":192,
			"byteOffset":42888,
			"target":34962
		},
		{
			"buffer":0,
			"byteLength":288,
			"byteOffset":43080,
			"target":34962
		},
		{
			"buffer":0,
			"byteLength":288,
			"byteOffset":43368,
			"target":34962
		},
		{
			"buffer":0,
			"byteLength":192,
			"byteOffset":43656,
			"target":34962
		},
		{
			"buffer":0,
			"byteLength":288,
			"byteOffset":43848,
			"target":34962
		},
		{
			"buffer":0,
			"byteLength":288,
			"byteOffset":44136,
			"target":34962
		},
		{
			"buffer":0,
			"byteLength":192,
			"byteOffset":44424,
			"target":34962
		},
		{
			"buffer":0,
			"byteLength":288,
			"byteOffset":44616,
			"target":34962
		},
		{
			"buffer":0,
			"byteLength":288,
			"byteOffset":44904,
			"target":34962
		},
		{
			"buffer":0,
			"byteLength":192,
			"byteOffset":45192,
			"target":34962
		},
		{
			"buffer":0,
			"byteLength":288,
			"byteOffset":45384,
			"target":34962
		},
		{
			"buffer":0,
			"byteLength":288,
			"byteOffset":45672,
			"target":34962
		},
		{
			"buffer":0,
			"byteLength":192,
			"byteOffset":45960,
			"target":34962
		},
		{
			"buffer":0,
			"byteLength":288,
			"byteOffset":46152,
			"target":34962
		},
		{
			"buffer":0,
			"byteLength":288,
			"byteOffset":46440,
			"target":34962
		},
		{
			"buffer":0,
			"byteLength":192,
			"byteOffset":46728,
			"target":34962
		},
		{
			"buffer":0,
			"byteLength":288,
			"byteOffset":46920,
			"target":34962
		},
		{
			"buffer":0,
			"byteLength":288,
			"byteOffset":47208,
			"target":34962
		},
		{
			"buffer":0,
			"byteLength":192,
			"byteOffset":47496,
			"target":34962
		},
		{
			"buffer":0,
			"byteLength":288,
			"byteOffset":47688,
			"target":34962
		},
		{
			"buffer":0,
			"byteLength":288,
			"byteOffset":47976,
			"target":34962
		},
		{
			"buffer":0,
			"byteLength":192,
			"byteOffset":48264,
			"target":34962
		},
		{
			"buffer":0,
			"byteLength":288,
			"byteOffset":48456,
			"target":34962
		},
		{
			"buffer":0,
			"byteLength":288,
			"byteOffset":48744,
			"target":34962
		},
		{
			"buffer":0,
			"byteLength":192,
			"byteOffset":49032,
			"target":34962
		}
	],
	"samplers":[
		{
			"magFilter":9729,
			"minFilter":9987
		}
	],
	"buffers":[
		{
			"byteLength":49224,
			"uri":"8454.bin"
		}
	]
}
