{
	"asset":{
		"generator":"Khronos glTF Blender I/O v4.5.47",
		"version":"2.0"
	},
	"extensionsUsed":[
		"KHR_materials_specular",
		"KHR_materials_ior"
	],
	"scene":0,
	"scenes":[
		{
			"name":"Scene",
			"nodes":[
				0,
				1,
				2,
				3,
				4,
				5,
				6,
				7,
				8,
				9,
				10,
				11,
				12,
				13,
				14,
				15,
				16,
				17,
				18,
				19,
				20,
				21,
				22,
				23,
				24,
				25,
				26,
				27,
				28,
				29,
				30,
				31,
				32,
				33
			]
		}
	],
	"nodes":[
		{
			"mesh":0,
			"name":"Cube",
			"rotation":[
				0.7071068286895752,
				0,
				0,
				0.7071068286895752
			]
		},
		{
			"mesh":1,
			"name":"Cube.001",
			"rotation":[
				0.7071068286895752,
				0,
				0,
				0.7071068286895752
			]
		},
		{
			"mesh":2,
			"name":"Cube.002",
			"rotation":[
				0.7071068286895752,
				0,
				0,
				0.7071068286895752
			]
		},
		{
			"mesh":3,
			"name":"Cube.003",
			"rotation":[
				0.7071068286895752,
				0,
				0,
				0.7071068286895752
			]
		},
		{
			"mesh":4,
			"name":"Cube.004",
			"rotation":[
				0.7071068286895752,
				0,
				0,
				0.7071068286895752
			]
		},
		{
			"mesh":5,
			"name":"Cube.005",
			"rotation":[
				0.7071068286895752,
				0,
				0,
				0.7071068286895752
			]
		},
		{
			"mesh":6,
			"name":"Cube.006",
			"rotation":[
				0.7071068286895752,
				0,
				0,
				0.7071068286895752
			]
		},
		{
			"mesh":7,
			"name":"Cube.007",
			"rotation":[
				0.7071068286895752,
				0,
				0,
				0.7071068286895752
			]
		},
		{
			"mesh":8,
			"name":"Cube.009",
			"rotation":[
				0.7071068286895752,
				0,
				0,
				0.7071068286895752
			]
		},
		{
			"mesh":9,
			"name":"Cube.010",
			"rotation":[
				0.7071068286895752,
				0,
				0,
				0.7071068286895752
			]
		},
		{
			"mesh":10,
			"name":"Cube.011",
			"rotation":[
				0.7071068286895752,
				0,
				0,
				0.7071068286895752
			]
		},
		{
			"mesh":11,
			"name":"Cube.012",
			"rotation":[
				0.7071068286895752,
				0,
				0,
				0.7071068286895752
			]
		},
		{
			"mesh":12,
			"name":"Cube.013",
			"rotation":[
				0.7071068286895752,
				0,
				0,
				0.7071068286895752
			]
		},
		{
			"mesh":13,
			"name":"Cube.014",
			"rotation":[
				0.7071068286895752,
				0,
				0,
				0.7071068286895752
			]
		},
		{
			"mesh":14,
			"name":"Cylinder.002",
			"rotation":[
				0.7071068286895752,
				0,
				0,
				0.7071068286895752
			]
		},
		{
			"mesh":15,
			"name":"Cylinder.003",
			"rotation":[
				0.7071068286895752,
				0,
				0,
				0.7071068286895752
			]
		},
		{
			"mesh":16,
			"name":"Cylinder.004",
			"rotation":[
				0.7071068286895752,
				0,
				0,
				0.7071068286895752
			]
		},
		{
			"mesh":17,
			"name":"Cylinder.005",
			"rotation":[
				0.7071068286895752,
				0,
				0,
				0.7071068286895752
			]
		},
		{
			"mesh":18,
			"name":"Cylinder.006",
			"rotation":[
				0.7071068286895752,
				0,
				0,
				0.7071068286895752
			]
		},
		{
			"mesh":19,
			"name":"Cylinder.007",
			"rotation":[
				0.7071068286895752,
				0,
				0,
				0.7071068286895752
			]
		},
		{
			"mesh":20,
			"name":"Cylinder.008",
			"rotation":[
				0.7071068286895752,
				0,
				0,
				0.7071068286895752
			]
		},
		{
			"mesh":21,
			"name":"Cylinder.009",
			"rotation":[
				0.7071068286895752,
				0,
				0,
				0.7071068286895752
			]
		},
		{
			"mesh":22,
			"name":"Cylinder.010",
			"rotation":[
				0.7071068286895752,
				0,
				0,
				0.7071068286895752
			]
		},
		{
			"mesh":23,
			"name":"Cylinder.011",
			"rotation":[
				0.7071068286895752,
				0,
				0,
				0.7071068286895752
			]
		},
		{
			"mesh":24,
			"name":"Cylinder.012",
			"rotation":[
				0.7071068286895752,
				0,
				0,
				0.7071068286895752
			]
		},
		{
			"mesh":25,
			"name":"Cylinder.013",
			"rotation":[
				0.7071068286895752,
				0,
				0,
				0.7071068286895752
			]
		},
		{
			"mesh":26,
			"name":"Cylinder.014",
			"rotation":[
				0.7071068286895752,
				0,
				0,
				0.7071068286895752
			]
		},
		{
			"mesh":27,
			"name":"Text",
			"rotation":[
				0.7071068286895752,
				0,
				0,
				0.7071068286895752
			]
		},
		{
			"mesh":28,
			"name":"\u0420\u0443\u0447\u043a\u0430",
			"rotation":[
				0.7071068286895752,
				0,
				0,
				0.7071068286895752
			]
		},
		{
			"mesh":29,
			"name":"\u0420\u0443\u0447\u043a\u0430.001",
			"rotation":[
				0.7071068286895752,
				0,
				0,
				0.7071068286895752
			]
		},
		{
			"mesh":30,
			"name":"\u0420\u0443\u0447\u043a\u0430.002",
			"rotation":[
				0.7071068286895752,
				0,
				0,
				0.7071068286895752
			]
		},
		{
			"mesh":31,
			"name":"\u0420\u0443\u0447\u043a\u0430.003",
			"rotation":[
				0.7071068286895752,
				0,
				0,
				0.7071068286895752
			]
		},
		{
			"mesh":32,
			"name":"\u043f\u043e\u0434\u043b\u043e\u0436\u043a\u0430",
			"rotation":[
				0.7071068286895752,
				0,
				0,
				0.7071068286895752
			]
		},
		{
			"mesh":33,
			"name":"\u043f\u043e\u0434\u043b\u043e\u0436\u043a\u0430.001",
			"rotation":[
				0.7071068286895752,
				0,
				0,
				0.7071068286895752
			]
		}
	],
	"materials":[
		{
			"doubleSided":true,
			"extensions":{
				"KHR_materials_specular":{
					"specularFactor":0
				},
				"KHR_materials_ior":{
					"ior":1.4500000476837158
				}
			},
			"name":"Material.001",
			"pbrMetallicRoughness":{
				"baseColorFactor":[
					0.12370999902486801,
					0.12370999902486801,
					0.12370999902486801,
					1
				],
				"metallicFactor":0,
				"roughnessFactor":0
			}
		},
		{
			"doubleSided":true,
			"name":"Material.002",
			"pbrMetallicRoughness":{
				"baseColorFactor":[
					0.8002194166183472,
					0.0043329657055437565,
					0,
					1
				],
				"metallicFactor":0,
				"roughnessFactor":0.3999999761581421
			}
		},
		{
			"doubleSided":true,
			"name":"Material.003",
			"pbrMetallicRoughness":{
				"baseColorFactor":[
					0.08852700144052505,
					0.08852700144052505,
					0.08852700144052505,
					1
				],
				"roughnessFactor":0.4909090995788574
			}
		},
		{
			"doubleSided":true,
			"extensions":{
				"KHR_materials_specular":{
					"specularFactor":0
				},
				"KHR_materials_ior":{
					"ior":1.4500000476837158
				}
			},
			"name":"Material.005",
			"pbrMetallicRoughness":{
				"baseColorFactor":[
					0.009084000252187252,
					0.009084000252187252,
					0.009084000252187252,
					1
				],
				"metallicFactor":0,
				"roughnessFactor":0.6318181753158569
			}
		}
	],
	"meshes":[
		{
			"name":"Cube.001",
			"primitives":[
				{
					"attributes":{
						"POSITION":0,
						"NORMAL":1,
						"TEXCOORD_0":2
					},
					"indices":3,
					"material":0
				}
			]
		},
		{
			"name":"Cube.002",
			"primitives":[
				{
					"attributes":{
						"POSITION":4,
						"NORMAL":5,
						"TEXCOORD_0":6
					},
					"indices":7,
					"material":0
				}
			]
		},
		{
			"name":"Cube.003",
			"primitives":[
				{
					"attributes":{
						"POSITION":8,
						"NORMAL":9,
						"TEXCOORD_0":10
					},
					"indices":11,
					"material":0
				}
			]
		},
		{
			"name":"Cube.004",
			"primitives":[
				{
					"attributes":{
						"POSITION":12,
						"NORMAL":13,
						"TEXCOORD_0":14
					},
					"indices":15,
					"material":0
				}
			]
		},
		{
			"name":"Cube.005",
			"primitives":[
				{
					"attributes":{
						"POSITION":16,
						"NORMAL":17,
						"TEXCOORD_0":18
					},
					"indices":19,
					"material":1
				}
			]
		},
		{
			"name":"Cube.006",
			"primitives":[
				{
					"attributes":{
						"POSITION":20,
						"NORMAL":21,
						"TEXCOORD_0":22
					},
					"indices":23,
					"material":0
				}
			]
		},
		{
			"name":"Cube.007",
			"primitives":[
				{
					"attributes":{
						"POSITION":24,
						"NORMAL":25,
						"TEXCOORD_0":26
					},
					"indices":27,
					"material":0
				}
			]
		},
		{
			"name":"Cube.008",
			"primitives":[
				{
					"attributes":{
						"POSITION":28,
						"NORMAL":29,
						"TEXCOORD_0":30
					},
					"indices":31,
					"material":0
				}
			]
		},
		{
			"name":"Cube.009",
			"primitives":[
				{
					"attributes":{
						"POSITION":32,
						"NORMAL":33,
						"TEXCOORD_0":34
					},
					"indices":35,
					"material":0
				}
			]
		},
		{
			"name":"Cube.010",
			"primitives":[
				{
					"attributes":{
						"POSITION":36,
						"NORMAL":37,
						"TEXCOORD_0":38
					},
					"indices":39,
					"material":0
				}
			]
		},
		{
			"name":"Cube.011",
			"primitives":[
				{
					"attributes":{
						"POSITION":40,
						"NORMAL":41,
						"TEXCOORD_0":42
					},
					"indices":39,
					"material":0
				}
			]
		},
		{
			"name":"Cube.012",
			"primitives":[
				{
					"attributes":{
						"POSITION":43,
						"NORMAL":44,
						"TEXCOORD_0":45
					},
					"indices":46,
					"material":0
				}
			]
		},
		{
			"name":"Cube.013",
			"primitives":[
				{
					"attributes":{
						"POSITION":47,
						"NORMAL":48,
						"TEXCOORD_0":49
					},
					"indices":50,
					"material":0
				}
			]
		},
		{
			"name":"Cube.014",
			"primitives":[
				{
					"attributes":{
						"POSITION":51,
						"NORMAL":52,
						"TEXCOORD_0":53
					},
					"indices":54,
					"material":0
				}
			]
		},
		{
			"name":"Cylinder.002",
			"primitives":[
				{
					"attributes":{
						"POSITION":55,
						"NORMAL":56,
						"TEXCOORD_0":57
					},
					"indices":58,
					"material":0
				}
			]
		},
		{
			"name":"Cylinder.003",
			"primitives":[
				{
					"attributes":{
						"POSITION":59,
						"NORMAL":60,
						"TEXCOORD_0":61
					},
					"indices":62,
					"material":0
				}
			]
		},
		{
			"name":"Cylinder.004",
			"primitives":[
				{
					"attributes":{
						"POSITION":63,
						"NORMAL":64,
						"TEXCOORD_0":65
					},
					"indices":66,
					"material":0
				}
			]
		},
		{
			"name":"Cylinder.005",
			"primitives":[
				{
					"attributes":{
						"POSITION":67,
						"NORMAL":68,
						"TEXCOORD_0":69
					},
					"indices":70,
					"material":0
				}
			]
		},
		{
			"name":"Cylinder.006",
			"primitives":[
				{
					"attributes":{
						"POSITION":71,
						"NORMAL":72,
						"TEXCOORD_0":73
					},
					"indices":58,
					"material":0
				}
			]
		},
		{
			"name":"Cylinder.007",
			"primitives":[
				{
					"attributes":{
						"POSITION":74,
						"NORMAL":75,
						"TEXCOORD_0":76
					},
					"indices":58,
					"material":0
				}
			]
		},
		{
			"name":"Cylinder.008",
			"primitives":[
				{
					"attributes":{
						"POSITION":77,
						"NORMAL":78,
						"TEXCOORD_0":79
					},
					"indices":80,
					"material":0
				}
			]
		},
		{
			"name":"Cylinder.009",
			"primitives":[
				{
					"attributes":{
						"POSITION":81,
						"NORMAL":82,
						"TEXCOORD_0":83
					},
					"indices":62,
					"material":0
				}
			]
		},
		{
			"name":"Cylinder.010",
			"primitives":[
				{
					"attributes":{
						"POSITION":84,
						"NORMAL":85,
						"TEXCOORD_0":86
					},
					"indices":66,
					"material":0
				}
			]
		},
		{
			"name":"Cylinder.011",
			"primitives":[
				{
					"attributes":{
						"POSITION":87,
						"NORMAL":88,
						"TEXCOORD_0":89
					},
					"indices":70,
					"material":0
				}
			]
		},
		{
			"name":"Cylinder.012",
			"primitives":[
				{
					"attributes":{
						"POSITION":90,
						"NORMAL":91,
						"TEXCOORD_0":92
					},
					"indices":58,
					"material":0
				}
			]
		},
		{
			"name":"Cylinder.013",
			"primitives":[
				{
					"attributes":{
						"POSITION":93,
						"NORMAL":94,
						"TEXCOORD_0":95
					},
					"indices":58,
					"material":0
				}
			]
		},
		{
			"name":"Cylinder.014",
			"primitives":[
				{
					"attributes":{
						"POSITION":96,
						"NORMAL":97,
						"TEXCOORD_0":98
					},
					"indices":80,
					"material":0
				}
			]
		},
		{
			"name":"Text",
			"primitives":[
				{
					"attributes":{
						"POSITION":99,
						"NORMAL":100,
						"TEXCOORD_0":101
					},
					"indices":102,
					"material":1
				}
			]
		},
		{
			"name":"\u0420\u0443\u0447\u043a\u0430",
			"primitives":[
				{
					"attributes":{
						"POSITION":103,
						"NORMAL":104,
						"TEXCOORD_0":105
					},
					"indices":106,
					"material":2
				}
			]
		},
		{
			"name":"\u0420\u0443\u0447\u043a\u0430.001",
			"primitives":[
				{
					"attributes":{
						"POSITION":107,
						"NORMAL":108,
						"TEXCOORD_0":109
					},
					"indices":110,
					"material":3
				}
			]
		},
		{
			"name":"\u0420\u0443\u0447\u043a\u0430.002",
			"primitives":[
				{
					"attributes":{
						"POSITION":111,
						"NORMAL":112,
						"TEXCOORD_0":113
					},
					"indices":114,
					"material":3
				}
			]
		},
		{
			"name":"\u0420\u0443\u0447\u043a\u0430.003",
			"primitives":[
				{
					"attributes":{
						"POSITION":115,
						"NORMAL":116,
						"TEXCOORD_0":117
					},
					"indices":118,
					"material":3
				}
			]
		},
		{
			"name":"\u043f\u043e\u0434\u043b\u043e\u0436\u043a\u0430",
			"primitives":[
				{
					"attributes":{
						"POSITION":119,
						"NORMAL":120,
						"TEXCOORD_0":121
					},
					"indices":122,
					"material":0
				}
			]
		},
		{
			"name":"\u043f\u043e\u0434\u043b\u043e\u0436\u043a\u0430.001",
			"primitives":[
				{
					"attributes":{
						"POSITION":123,
						"NORMAL":124,
						"TEXCOORD_0":125
					},
					"indices":126,
					"material":0
				}
			]
		}
	],
	"accessors":[
		{
			"bufferView":0,
			"componentType":5126,
			"count":1037,
			"max":[
				0.0487390011548996,
				-1.0314960479736328,
				0.3959540128707886
			],
			"min":[
				-0.0487390011548996,
				-1.400570034980774,
				0.0729840025305748
			],
			"type":"VEC3"
		},
		{
			"bufferView":1,
			"componentType":5126,
			"count":1037,
			"type":"VEC3"
		},
		{
			"bufferView":2,
			"componentType":5126,
			"count":1037,
			"type":"VEC2"
		},
		{
			"bufferView":3,
			"componentType":5123,
			"count":5424,
			"type":"SCALAR"
		},
		{
			"bufferView":4,
			"componentType":5126,
			"count":420,
			"max":[
				0.019680999219417572,
				-1.1534550189971924,
				0.6118149757385254
			],
			"min":[
				-0.019620999693870544,
				-1.409227967262268,
				0.2692199945449829
			],
			"type":"VEC3"
		},
		{
			"bufferView":5,
			"componentType":5126,
			"count":420,
			"type":"VEC3"
		},
		{
			"bufferView":6,
			"componentType":5126,
			"count":420,
			"type":"VEC2"
		},
		{
			"bufferView":7,
			"componentType":5123,
			"count":2112,
			"type":"SCALAR"
		},
		{
			"bufferView":8,
			"componentType":5126,
			"count":11087,
			"max":[
				0.021182000637054443,
				3.391526937484741,
				0.2780359983444214
			],
			"min":[
				-0.021182000637054443,
				-1.1549880504608154,
				0.018540000542998314
			],
			"type":"VEC3"
		},
		{
			"bufferView":9,
			"componentType":5126,
			"count":11087,
			"type":"VEC3"
		},
		{
			"bufferView":10,
			"componentType":5126,
			"count":11087,
			"type":"VEC2"
		},
		{
			"bufferView":11,
			"componentType":5123,
			"count":63744,
			"type":"SCALAR"
		},
		{
			"bufferView":12,
			"componentType":5126,
			"count":1402,
			"max":[
				0.036024998873472214,
				-0.5604619979858398,
				0.25566598773002625
			],
			"min":[
				-0.03723600134253502,
				-1.1471110582351685,
				0.2263679951429367
			],
			"type":"VEC3"
		},
		{
			"bufferView":13,
			"componentType":5126,
			"count":1402,
			"type":"VEC3"
		},
		{
			"bufferView":14,
			"componentType":5126,
			"count":1402,
			"type":"VEC2"
		},
		{
			"bufferView":15,
			"componentType":5123,
			"count":7680,
			"type":"SCALAR"
		},
		{
			"bufferView":16,
			"componentType":5126,
			"count":1662,
			"max":[
				0.011618000455200672,
				3.6149840354919434,
				0.3747979998588562
			],
			"min":[
				-0.011618000455200672,
				-0.6847410202026367,
				0.009619999676942825
			],
			"type":"VEC3"
		},
		{
			"bufferView":17,
			"componentType":5126,
			"count":1662,
			"type":"VEC3"
		},
		{
			"bufferView":18,
			"componentType":5126,
			"count":1662,
			"type":"VEC2"
		},
		{
			"bufferView":19,
			"componentType":5123,
			"count":8880,
			"type":"SCALAR"
		},
		{
			"bufferView":20,
			"componentType":5126,
			"count":304,
			"max":[
				0.012872000224888325,
				0.15472599864006042,
				0.3087480068206787
			],
			"min":[
				-0.012872000224888325,
				0.048158999532461166,
				0.27298998832702637
			],
			"type":"VEC3"
		},
		{
			"bufferView":21,
			"componentType":5126,
			"count":304,
			"type":"VEC3"
		},
		{
			"bufferView":22,
			"componentType":5126,
			"count":304,
			"type":"VEC2"
		},
		{
			"bufferView":23,
			"componentType":5123,
			"count":492,
			"type":"SCALAR"
		},
		{
			"bufferView":24,
			"componentType":5126,
			"count":304,
			"max":[
				0.011398999951779842,
				1.552077054977417,
				0.2755729854106903
			],
			"min":[
				-0.011398999951779842,
				1.4455469846725464,
				0.23836100101470947
			],
			"type":"VEC3"
		},
		{
			"bufferView":25,
			"componentType":5126,
			"count":304,
			"type":"VEC3"
		},
		{
			"bufferView":26,
			"componentType":5126,
			"count":304,
			"type":"VEC2"
		},
		{
			"bufferView":27,
			"componentType":5123,
			"count":492,
			"type":"SCALAR"
		},
		{
			"bufferView":28,
			"componentType":5126,
			"count":304,
			"max":[
				0.011938000097870827,
				3.36537504196167,
				0.16297799348831177
			],
			"min":[
				-0.011938000097870827,
				3.267920970916748,
				0.07276999950408936
			],
			"type":"VEC3"
		},
		{
			"bufferView":29,
			"componentType":5126,
			"count":304,
			"type":"VEC3"
		},
		{
			"bufferView":30,
			"componentType":5126,
			"count":304,
			"type":"VEC2"
		},
		{
			"bufferView":31,
			"componentType":5123,
			"count":492,
			"type":"SCALAR"
		},
		{
			"bufferView":32,
			"componentType":5126,
			"count":1649,
			"max":[
				0.011603999882936478,
				0.12090999633073807,
				0.23308999836444855
			],
			"min":[
				-0.011603999882936478,
				0.07579399645328522,
				0.16976100206375122
			],
			"type":"VEC3"
		},
		{
			"bufferView":33,
			"componentType":5126,
			"count":1649,
			"type":"VEC3"
		},
		{
			"bufferView":34,
			"componentType":5126,
			"count":1649,
			"type":"VEC2"
		},
		{
			"bufferView":35,
			"componentType":5123,
			"count":9216,
			"type":"SCALAR"
		},
		{
			"bufferView":36,
			"componentType":5126,
			"count":1649,
			"max":[
				0.011603999882936478,
				1.518846035003662,
				0.19852399826049805
			],
			"min":[
				-0.011603999882936478,
				1.4725229740142822,
				0.13434599339962006
			],
			"type":"VEC3"
		},
		{
			"bufferView":37,
			"componentType":5126,
			"count":1649,
			"type":"VEC3"
		},
		{
			"bufferView":38,
			"componentType":5126,
			"count":1649,
			"type":"VEC2"
		},
		{
			"bufferView":39,
			"componentType":5123,
			"count":9216,
			"type":"SCALAR"
		},
		{
			"bufferView":40,
			"componentType":5126,
			"count":1649,
			"max":[
				0.011603999882936478,
				3.0232410430908203,
				0.13557900488376617
			],
			"min":[
				-0.011603999882936478,
				2.9769179821014404,
				0.07140100002288818
			],
			"type":"VEC3"
		},
		{
			"bufferView":41,
			"componentType":5126,
			"count":1649,
			"type":"VEC3"
		},
		{
			"bufferView":42,
			"componentType":5126,
			"count":1649,
			"type":"VEC2"
		},
		{
			"bufferView":43,
			"componentType":5126,
			"count":256,
			"max":[
				0.010245000012218952,
				0.220333993434906,
				0.1338459998369217
			],
			"min":[
				-0.010245000012218952,
				-1.0371229648590088,
				0.09233099967241287
			],
			"type":"VEC3"
		},
		{
			"bufferView":44,
			"componentType":5126,
			"count":256,
			"type":"VEC3"
		},
		{
			"bufferView":45,
			"componentType":5126,
			"count":256,
			"type":"VEC2"
		},
		{
			"bufferView":46,
			"componentType":5123,
			"count":288,
			"type":"SCALAR"
		},
		{
			"bufferView":47,
			"componentType":5126,
			"count":1396,
			"max":[
				0.030945999547839165,
				-0.5902130007743835,
				0.3832840025424957
			],
			"min":[
				-0.03762400150299072,
				-1.2695059776306152,
				0.24150200188159943
			],
			"type":"VEC3"
		},
		{
			"bufferView":48,
			"componentType":5126,
			"count":1396,
			"type":"VEC3"
		},
		{
			"bufferView":49,
			"componentType":5126,
			"count":1396,
			"type":"VEC2"
		},
		{
			"bufferView":50,
			"componentType":5123,
			"count":7680,
			"type":"SCALAR"
		},
		{
			"bufferView":51,
			"componentType":5126,
			"count":1434,
			"max":[
				0.015238000079989433,
				-0.6802639961242676,
				0.2928529977798462
			],
			"min":[
				-0.01311499997973442,
				-1.2189079523086548,
				0.1510709971189499
			],
			"type":"VEC3"
		},
		{
			"bufferView":52,
			"componentType":5126,
			"count":1434,
			"type":"VEC3"
		},
		{
			"bufferView":53,
			"componentType":5126,
			"count":1434,
			"type":"VEC2"
		},
		{
			"bufferView":54,
			"componentType":5123,
			"count":7680,
			"type":"SCALAR"
		},
		{
			"bufferView":55,
			"componentType":5126,
			"count":13915,
			"max":[
				0.04580700024962425,
				-1.2028859853744507,
				0.3720160126686096
			],
			"min":[
				0.031032999977469444,
				-1.2215980291366577,
				0.35339900851249695
			],
			"type":"VEC3"
		},
		{
			"bufferView":56,
			"componentType":5126,
			"count":13915,
			"type":"VEC3"
		},
		{
			"bufferView":57,
			"componentType":5126,
			"count":13915,
			"type":"VEC2"
		},
		{
			"bufferView":58,
			"componentType":5123,
			"count":79872,
			"type":"SCALAR"
		},
		{
			"bufferView":59,
			"componentType":5126,
			"count":13915,
			"max":[
				0.087677001953125,
				-1.1590689420700073,
				0.14205500483512878
			],
			"min":[
				0.07290200144052505,
				-1.189291000366211,
				0.11198599636554718
			],
			"type":"VEC3"
		},
		{
			"bufferView":60,
			"componentType":5126,
			"count":13915,
			"type":"VEC3"
		},
		{
			"bufferView":61,
			"componentType":5126,
			"count":13915,
			"type":"VEC2"
		},
		{
			"bufferView":62,
			"componentType":5123,
			"count":79872,
			"type":"SCALAR"
		},
		{
			"bufferView":63,
			"componentType":5126,
			"count":13915,
			"max":[
				0.0703129991889,
				-1.2476340532302856,
				0.15816600620746613
			],
			"min":[
				0.05553799867630005,
				-1.2749300003051758,
				0.13100799918174744
			],
			"type":"VEC3"
		},
		{
			"bufferView":64,
			"componentType":5126,
			"count":13915,
			"type":"VEC3"
		},
		{
			"bufferView":65,
			"componentType":5126,
			"count":13915,
			"type":"VEC2"
		},
		{
			"bufferView":66,
			"componentType":5123,
			"count":79872,
			"type":"SCALAR"
		},
		{
			"bufferView":67,
			"componentType":5126,
			"count":13915,
			"max":[
				0.087677001953125,
				-1.352918028831482,
				0.3364349901676178
			],
			"min":[
				0.07290200144052505,
				-1.3819119930267334,
				0.30758801102638245
			],
			"type":"VEC3"
		},
		{
			"bufferView":68,
			"componentType":5126,
			"count":13915,
			"type":"VEC3"
		},
		{
			"bufferView":69,
			"componentType":5126,
			"count":13915,
			"type":"VEC2"
		},
		{
			"bufferView":70,
			"componentType":5123,
			"count":79872,
			"type":"SCALAR"
		},
		{
			"bufferView":71,
			"componentType":5126,
			"count":13915,
			"max":[
				0.087677001953125,
				-2.276005983352661,
				0.2402539998292923
			],
			"min":[
				0.07290200144052505,
				-2.2947170734405518,
				0.22163699567317963
			],
			"type":"VEC3"
		},
		{
			"bufferView":72,
			"componentType":5126,
			"count":13915,
			"type":"VEC3"
		},
		{
			"bufferView":73,
			"componentType":5126,
			"count":13915,
			"type":"VEC2"
		},
		{
			"bufferView":74,
			"componentType":5126,
			"count":13915,
			"max":[
				0.087677001953125,
				-2.276005983352661,
				0.3166399896144867
			],
			"min":[
				0.07290200144052505,
				-2.2947170734405518,
				0.298022985458374
			],
			"type":"VEC3"
		},
		{
			"bufferView":75,
			"componentType":5126,
			"count":13915,
			"type":"VEC3"
		},
		{
			"bufferView":76,
			"componentType":5126,
			"count":13915,
			"type":"VEC2"
		},
		{
			"bufferView":77,
			"componentType":5126,
			"count":13915,
			"max":[
				0.087677001953125,
				-2.493911027908325,
				0.34428998827934265
			],
			"min":[
				0.07290200144052505,
				-2.5237090587615967,
				0.3146420121192932
			],
			"type":"VEC3"
		},
		{
			"bufferView":78,
			"componentType":5126,
			"count":13915,
			"type":"VEC3"
		},
		{
			"bufferView":79,
			"componentType":5126,
			"count":13915,
			"type":"VEC2"
		},
		{
			"bufferView":80,
			"componentType":5123,
			"count":79872,
			"type":"SCALAR"
		},
		{
			"bufferView":81,
			"componentType":5126,
			"count":13915,
			"max":[
				-0.0671209990978241,
				-1.1590689420700073,
				0.14205500483512878
			],
			"min":[
				-0.08189500123262405,
				-1.189291000366211,
				0.11198599636554718
			],
			"type":"VEC3"
		},
		{
			"bufferView":82,
			"componentType":5126,
			"count":13915,
			"type":"VEC3"
		},
		{
			"bufferView":83,
			"componentType":5126,
			"count":13915,
			"type":"VEC2"
		},
		{
			"bufferView":84,
			"componentType":5126,
			"count":13915,
			"max":[
				-0.0558990016579628,
				-1.2476340532302856,
				0.15816600620746613
			],
			"min":[
				-0.07067400217056274,
				-1.2749300003051758,
				0.13100799918174744
			],
			"type":"VEC3"
		},
		{
			"bufferView":85,
			"componentType":5126,
			"count":13915,
			"type":"VEC3"
		},
		{
			"bufferView":86,
			"componentType":5126,
			"count":13915,
			"type":"VEC2"
		},
		{
			"bufferView":87,
			"componentType":5126,
			"count":13915,
			"max":[
				-0.07420700043439865,
				-1.352918028831482,
				0.3364349901676178
			],
			"min":[
				-0.08898100256919861,
				-1.3819119930267334,
				0.30758801102638245
			],
			"type":"VEC3"
		},
		{
			"bufferView":88,
			"componentType":5126,
			"count":13915,
			"type":"VEC3"
		},
		{
			"bufferView":89,
			"componentType":5126,
			"count":13915,
			"type":"VEC2"
		},
		{
			"bufferView":90,
			"componentType":5126,
			"count":13915,
			"max":[
				-0.0671209990978241,
				-2.276005983352661,
				0.2402539998292923
			],
			"min":[
				-0.08189500123262405,
				-2.2947170734405518,
				0.22163699567317963
			],
			"type":"VEC3"
		},
		{
			"bufferView":91,
			"componentType":5126,
			"count":13915,
			"type":"VEC3"
		},
		{
			"bufferView":92,
			"componentType":5126,
			"count":13915,
			"type":"VEC2"
		},
		{
			"bufferView":93,
			"componentType":5126,
			"count":13915,
			"max":[
				-0.0671209990978241,
				-2.276005983352661,
				0.3166399896144867
			],
			"min":[
				-0.08189500123262405,
				-2.2947170734405518,
				0.298022985458374
			],
			"type":"VEC3"
		},
		{
			"bufferView":94,
			"componentType":5126,
			"count":13915,
			"type":"VEC3"
		},
		{
			"bufferView":95,
			"componentType":5126,
			"count":13915,
			"type":"VEC2"
		},
		{
			"bufferView":96,
			"componentType":5126,
			"count":13915,
			"max":[
				-0.0671209990978241,
				-2.493911027908325,
				0.34428998827934265
			],
			"min":[
				-0.08189500123262405,
				-2.5237090587615967,
				0.3146420121192932
			],
			"type":"VEC3"
		},
		{
			"bufferView":97,
			"componentType":5126,
			"count":13915,
			"type":"VEC3"
		},
		{
			"bufferView":98,
			"componentType":5126,
			"count":13915,
			"type":"VEC2"
		},
		{
			"bufferView":99,
			"componentType":5126,
			"count":240,
			"max":[
				0.031050000339746475,
				-0.7264729738235474,
				0.3374199867248535
			],
			"min":[
				0.029829999431967735,
				-1.203698992729187,
				0.25930601358413696
			],
			"type":"VEC3"
		},
		{
			"bufferView":100,
			"componentType":5126,
			"count":240,
			"type":"VEC3"
		},
		{
			"bufferView":101,
			"componentType":5126,
			"count":240,
			"type":"VEC2"
		},
		{
			"bufferView":102,
			"componentType":5123,
			"count":480,
			"type":"SCALAR"
		},
		{
			"bufferView":103,
			"componentType":5126,
			"count":102074,
			"max":[
				0.07734700292348862,
				-1.0298490524291992,
				0.446370005607605
			],
			"min":[
				-0.07734700292348862,
				-2.5813748836517334,
				0.05458800122141838
			],
			"type":"VEC3"
		},
		{
			"bufferView":104,
			"componentType":5126,
			"count":102074,
			"type":"VEC3"
		},
		{
			"bufferView":105,
			"componentType":5126,
			"count":102074,
			"type":"VEC2"
		},
		{
			"bufferView":106,
			"componentType":5125,
			"count":591792,
			"type":"SCALAR"
		},
		{
			"bufferView":107,
			"componentType":5126,
			"count":2281,
			"max":[
				0.07745099812746048,
				-1.447504997253418,
				0.3873920142650604
			],
			"min":[
				-0.07678300142288208,
				-1.7545950412750244,
				0.35453900694847107
			],
			"type":"VEC3"
		},
		{
			"bufferView":108,
			"componentType":5126,
			"count":2281,
			"type":"VEC3"
		},
		{
			"bufferView":109,
			"componentType":5126,
			"count":2281,
			"type":"VEC2"
		},
		{
			"bufferView":110,
			"componentType":5123,
			"count":13056,
			"type":"SCALAR"
		},
		{
			"bufferView":111,
			"componentType":5126,
			"count":10262,
			"max":[
				0.07477399706840515,
				-1.44315505027771,
				0.17155300080776215
			],
			"min":[
				-0.07476799935102463,
				-2.252729892730713,
				0.13726000487804413
			],
			"type":"VEC3"
		},
		{
			"bufferView":112,
			"componentType":5126,
			"count":10262,
			"type":"VEC3"
		},
		{
			"bufferView":113,
			"componentType":5126,
			"count":10262,
			"type":"VEC2"
		},
		{
			"bufferView":114,
			"componentType":5123,
			"count":58752,
			"type":"SCALAR"
		},
		{
			"bufferView":115,
			"componentType":5126,
			"count":7622,
			"max":[
				0.08277899771928787,
				-1.4186559915542603,
				0.3032410144805908
			],
			"min":[
				-0.08277899771928787,
				-2.214953899383545,
				0.20688900351524353
			],
			"type":"VEC3"
		},
		{
			"bufferView":116,
			"componentType":5126,
			"count":7622,
			"type":"VEC3"
		},
		{
			"bufferView":117,
			"componentType":5126,
			"count":7622,
			"type":"VEC2"
		},
		{
			"bufferView":118,
			"componentType":5123,
			"count":40224,
			"type":"SCALAR"
		},
		{
			"bufferView":119,
			"componentType":5126,
			"count":8109,
			"max":[
				0.08340399712324142,
				-1.0384010076522827,
				0.38784098625183105
			],
			"min":[
				-0.08330100029706955,
				-1.397758960723877,
				0.05290300026535988
			],
			"type":"VEC3"
		},
		{
			"bufferView":120,
			"componentType":5126,
			"count":8109,
			"type":"VEC3"
		},
		{
			"bufferView":121,
			"componentType":5126,
			"count":8109,
			"type":"VEC2"
		},
		{
			"bufferView":122,
			"componentType":5123,
			"count":43488,
			"type":"SCALAR"
		},
		{
			"bufferView":123,
			"componentType":5126,
			"count":3104,
			"max":[
				0.08017399907112122,
				-1.2637109756469727,
				0.4185529947280884
			],
			"min":[
				-0.08016499876976013,
				-1.4391560554504395,
				0.309675008058548
			],
			"type":"VEC3"
		},
		{
			"bufferView":124,
			"componentType":5126,
			"count":3104,
			"type":"VEC3"
		},
		{
			"bufferView":125,
			"componentType":5126,
			"count":3104,
			"type":"VEC2"
		},
		{
			"bufferView":126,
			"componentType":5123,
			"count":15600,
			"type":"SCALAR"
		}
	],
	"bufferViews":[
		{
			"buffer":0,
			"byteLength":12444,
			"byteOffset":0,
			"target":34962
		},
		{
			"buffer":0,
			"byteLength":12444,
			"byteOffset":12444,
			"target":34962
		},
		{
			"buffer":0,
			"byteLength":8296,
			"byteOffset":24888,
			"target":34962
		},
		{
			"buffer":0,
			"byteLength":10848,
			"byteOffset":33184,
			"target":34963
		},
		{
			"buffer":0,
			"byteLength":5040,
			"byteOffset":44032,
			"target":34962
		},
		{
			"buffer":0,
			"byteLength":5040,
			"byteOffset":49072,
			"target":34962
		},
		{
			"buffer":0,
			"byteLength":3360,
			"byteOffset":54112,
			"target":34962
		},
		{
			"buffer":0,
			"byteLength":4224,
			"byteOffset":57472,
			"target":34963
		},
		{
			"buffer":0,
			"byteLength":133044,
			"byteOffset":61696,
			"target":34962
		},
		{
			"buffer":0,
			"byteLength":133044,
			"byteOffset":194740,
			"target":34962
		},
		{
			"buffer":0,
			"byteLength":88696,
			"byteOffset":327784,
			"target":34962
		},
		{
			"buffer":0,
			"byteLength":127488,
			"byteOffset":416480,
			"target":34963
		},
		{
			"buffer":0,
			"byteLength":16824,
			"byteOffset":543968,
			"target":34962
		},
		{
			"buffer":0,
			"byteLength":16824,
			"byteOffset":560792,
			"target":34962
		},
		{
			"buffer":0,
			"byteLength":11216,
			"byteOffset":577616,
			"target":34962
		},
		{
			"buffer":0,
			"byteLength":15360,
			"byteOffset":588832,
			"target":34963
		},
		{
			"buffer":0,
			"byteLength":19944,
			"byteOffset":604192,
			"target":34962
		},
		{
			"buffer":0,
			"byteLength":19944,
			"byteOffset":624136,
			"target":34962
		},
		{
			"buffer":0,
			"byteLength":13296,
			"byteOffset":644080,
			"target":34962
		},
		{
			"buffer":0,
			"byteLength":17760,
			"byteOffset":657376,
			"target":34963
		},
		{
			"buffer":0,
			"byteLength":3648,
			"byteOffset":675136,
			"target":34962
		},
		{
			"buffer":0,
			"byteLength":3648,
			"byteOffset":678784,
			"target":34962
		},
		{
			"buffer":0,
			"byteLength":2432,
			"byteOffset":682432,
			"target":34962
		},
		{
			"buffer":0,
			"byteLength":984,
			"byteOffset":684864,
			"target":34963
		},
		{
			"buffer":0,
			"byteLength":3648,
			"byteOffset":685848,
			"target":34962
		},
		{
			"buffer":0,
			"byteLength":3648,
			"byteOffset":689496,
			"target":34962
		},
		{
			"buffer":0,
			"byteLength":2432,
			"byteOffset":693144,
			"target":34962
		},
		{
			"buffer":0,
			"byteLength":984,
			"byteOffset":695576,
			"target":34963
		},
		{
			"buffer":0,
			"byteLength":3648,
			"byteOffset":696560,
			"target":34962
		},
		{
			"buffer":0,
			"byteLength":3648,
			"byteOffset":700208,
			"target":34962
		},
		{
			"buffer":0,
			"byteLength":2432,
			"byteOffset":703856,
			"target":34962
		},
		{
			"buffer":0,
			"byteLength":984,
			"byteOffset":706288,
			"target":34963
		},
		{
			"buffer":0,
			"byteLength":19788,
			"byteOffset":707272,
			"target":34962
		},
		{
			"buffer":0,
			"byteLength":19788,
			"byteOffset":727060,
			"target":34962
		},
		{
			"buffer":0,
			"byteLength":13192,
			"byteOffset":746848,
			"target":34962
		},
		{
			"buffer":0,
			"byteLength":18432,
			"byteOffset":760040,
			"target":34963
		},
		{
			"buffer":0,
			"byteLength":19788,
			"byteOffset":778472,
			"target":34962
		},
		{
			"buffer":0,
			"byteLength":19788,
			"byteOffset":798260,
			"target":34962
		},
		{
			"buffer":0,
			"byteLength":13192,
			"byteOffset":818048,
			"target":34962
		},
		{
			"buffer":0,
			"byteLength":18432,
			"byteOffset":831240,
			"target":34963
		},
		{
			"buffer":0,
			"byteLength":19788,
			"byteOffset":849672,
			"target":34962
		},
		{
			"buffer":0,
			"byteLength":19788,
			"byteOffset":869460,
			"target":34962
		},
		{
			"buffer":0,
			"byteLength":13192,
			"byteOffset":889248,
			"target":34962
		},
		{
			"buffer":0,
			"byteLength":3072,
			"byteOffset":902440,
			"target":34962
		},
		{
			"buffer":0,
			"byteLength":3072,
			"byteOffset":905512,
			"target":34962
		},
		{
			"buffer":0,
			"byteLength":2048,
			"byteOffset":908584,
			"target":34962
		},
		{
			"buffer":0,
			"byteLength":576,
			"byteOffset":910632,
			"target":34963
		},
		{
			"buffer":0,
			"byteLength":16752,
			"byteOffset":911208,
			"target":34962
		},
		{
			"buffer":0,
			"byteLength":16752,
			"byteOffset":927960,
			"target":34962
		},
		{
			"buffer":0,
			"byteLength":11168,
			"byteOffset":944712,
			"target":34962
		},
		{
			"buffer":0,
			"byteLength":15360,
			"byteOffset":955880,
			"target":34963
		},
		{
			"buffer":0,
			"byteLength":17208,
			"byteOffset":971240,
			"target":34962
		},
		{
			"buffer":0,
			"byteLength":17208,
			"byteOffset":988448,
			"target":34962
		},
		{
			"buffer":0,
			"byteLength":11472,
			"byteOffset":1005656,
			"target":34962
		},
		{
			"buffer":0,
			"byteLength":15360,
			"byteOffset":1017128,
			"target":34963
		},
		{
			"buffer":0,
			"byteLength":166980,
			"byteOffset":1032488,
			"target":34962
		},
		{
			"buffer":0,
			"byteLength":166980,
			"byteOffset":1199468,
			"target":34962
		},
		{
			"buffer":0,
			"byteLength":111320,
			"byteOffset":1366448,
			"target":34962
		},
		{
			"buffer":0,
			"byteLength":159744,
			"byteOffset":1477768,
			"target":34963
		},
		{
			"buffer":0,
			"byteLength":166980,
			"byteOffset":1637512,
			"target":34962
		},
		{
			"buffer":0,
			"byteLength":166980,
			"byteOffset":1804492,
			"target":34962
		},
		{
			"buffer":0,
			"byteLength":111320,
			"byteOffset":1971472,
			"target":34962
		},
		{
			"buffer":0,
			"byteLength":159744,
			"byteOffset":2082792,
			"target":34963
		},
		{
			"buffer":0,
			"byteLength":166980,
			"byteOffset":2242536,
			"target":34962
		},
		{
			"buffer":0,
			"byteLength":166980,
			"byteOffset":2409516,
			"target":34962
		},
		{
			"buffer":0,
			"byteLength":111320,
			"byteOffset":2576496,
			"target":34962
		},
		{
			"buffer":0,
			"byteLength":159744,
			"byteOffset":2687816,
			"target":34963
		},
		{
			"buffer":0,
			"byteLength":166980,
			"byteOffset":2847560,
			"target":34962
		},
		{
			"buffer":0,
			"byteLength":166980,
			"byteOffset":3014540,
			"target":34962
		},
		{
			"buffer":0,
			"byteLength":111320,
			"byteOffset":3181520,
			"target":34962
		},
		{
			"buffer":0,
			"byteLength":159744,
			"byteOffset":3292840,
			"target":34963
		},
		{
			"buffer":0,
			"byteLength":166980,
			"byteOffset":3452584,
			"target":34962
		},
		{
			"buffer":0,
			"byteLength":166980,
			"byteOffset":3619564,
			"target":34962
		},
		{
			"buffer":0,
			"byteLength":111320,
			"byteOffset":3786544,
			"target":34962
		},
		{
			"buffer":0,
			"byteLength":166980,
			"byteOffset":3897864,
			"target":34962
		},
		{
			"buffer":0,
			"byteLength":166980,
			"byteOffset":4064844,
			"target":34962
		},
		{
			"buffer":0,
			"byteLength":111320,
			"byteOffset":4231824,
			"target":34962
		},
		{
			"buffer":0,
			"byteLength":166980,
			"byteOffset":4343144,
			"target":34962
		},
		{
			"buffer":0,
			"byteLength":166980,
			"byteOffset":4510124,
			"target":34962
		},
		{
			"buffer":0,
			"byteLength":111320,
			"byteOffset":4677104,
			"target":34962
		},
		{
			"buffer":0,
			"byteLength":159744,
			"byteOffset":4788424,
			"target":34963
		},
		{
			"buffer":0,
			"byteLength":166980,
			"byteOffset":4948168,
			"target":34962
		},
		{
			"buffer":0,
			"byteLength":166980,
			"byteOffset":5115148,
			"target":34962
		},
		{
			"buffer":0,
			"byteLength":111320,
			"byteOffset":5282128,
			"target":34962
		},
		{
			"buffer":0,
			"byteLength":166980,
			"byteOffset":5393448,
			"target":34962
		},
		{
			"buffer":0,
			"byteLength":166980,
			"byteOffset":5560428,
			"target":34962
		},
		{
			"buffer":0,
			"byteLength":111320,
			"byteOffset":5727408,
			"target":34962
		},
		{
			"buffer":0,
			"byteLength":166980,
			"byteOffset":5838728,
			"target":34962
		},
		{
			"buffer":0,
			"byteLength":166980,
			"byteOffset":6005708,
			"target":34962
		},
		{
			"buffer":0,
			"byteLength":111320,
			"byteOffset":6172688,
			"target":34962
		},
		{
			"buffer":0,
			"byteLength":166980,
			"byteOffset":6284008,
			"target":34962
		},
		{
			"buffer":0,
			"byteLength":166980,
			"byteOffset":6450988,
			"target":34962
		},
		{
			"buffer":0,
			"byteLength":111320,
			"byteOffset":6617968,
			"target":34962
		},
		{
			"buffer":0,
			"byteLength":166980,
			"byteOffset":6729288,
			"target":34962
		},
		{
			"buffer":0,
			"byteLength":166980,
			"byteOffset":6896268,
			"target":34962
		},
		{
			"buffer":0,
			"byteLength":111320,
			"byteOffset":7063248,
			"target":34962
		},
		{
			"buffer":0,
			"byteLength":166980,
			"byteOffset":7174568,
			"target":34962
		},
		{
			"buffer":0,
			"byteLength":166980,
			"byteOffset":7341548,
			"target":34962
		},
		{
			"buffer":0,
			"byteLength":111320,
			"byteOffset":7508528,
			"target":34962
		},
		{
			"buffer":0,
			"byteLength":2880,
			"byteOffset":7619848,
			"target":34962
		},
		{
			"buffer":0,
			"byteLength":2880,
			"byteOffset":7622728,
			"target":34962
		},
		{
			"buffer":0,
			"byteLength":1920,
			"byteOffset":7625608,
			"target":34962
		},
		{
			"buffer":0,
			"byteLength":960,
			"byteOffset":7627528,
			"target":34963
		},
		{
			"buffer":0,
			"byteLength":1224888,
			"byteOffset":7628488,
			"target":34962
		},
		{
			"buffer":0,
			"byteLength":1224888,
			"byteOffset":8853376,
			"target":34962
		},
		{
			"buffer":0,
			"byteLength":816592,
			"byteOffset":10078264,
			"target":34962
		},
		{
			"buffer":0,
			"byteLength":2367168,
			"byteOffset":10894856,
			"target":34963
		},
		{
			"buffer":0,
			"byteLength":27372,
			"byteOffset":13262024,
			"target":34962
		},
		{
			"buffer":0,
			"byteLength":27372,
			"byteOffset":13289396,
			"target":34962
		},
		{
			"buffer":0,
			"byteLength":18248,
			"byteOffset":13316768,
			"target":34962
		},
		{
			"buffer":0,
			"byteLength":26112,
			"byteOffset":13335016,
			"target":34963
		},
		{
			"buffer":0,
			"byteLength":123144,
			"byteOffset":13361128,
			"target":34962
		},
		{
			"buffer":0,
			"byteLength":123144,
			"byteOffset":13484272,
			"target":34962
		},
		{
			"buffer":0,
			"byteLength":82096,
			"byteOffset":13607416,
			"target":34962
		},
		{
			"buffer":0,
			"byteLength":117504,
			"byteOffset":13689512,
			"target":34963
		},
		{
			"buffer":0,
			"byteLength":91464,
			"byteOffset":13807016,
			"target":34962
		},
		{
			"buffer":0,
			"byteLength":91464,
			"byteOffset":13898480,
			"target":34962
		},
		{
			"buffer":0,
			"byteLength":60976,
			"byteOffset":13989944,
			"target":34962
		},
		{
			"buffer":0,
			"byteLength":80448,
			"byteOffset":14050920,
			"target":34963
		},
		{
			"buffer":0,
			"byteLength":97308,
			"byteOffset":14131368,
			"target":34962
		},
		{
			"buffer":0,
			"byteLength":97308,
			"byteOffset":14228676,
			"target":34962
		},
		{
			"buffer":0,
			"byteLength":64872,
			"byteOffset":14325984,
			"target":34962
		},
		{
			"buffer":0,
			"byteLength":86976,
			"byteOffset":14390856,
			"target":34963
		},
		{
			"buffer":0,
			"byteLength":37248,
			"byteOffset":14477832,
			"target":34962
		},
		{
			"buffer":0,
			"byteLength":37248,
			"byteOffset":14515080,
			"target":34962
		},
		{
			"buffer":0,
			"byteLength":24832,
			"byteOffset":14552328,
			"target":34962
		},
		{
			"buffer":0,
			"byteLength":31200,
			"byteOffset":14577160,
			"target":34963
		}
	],
	"buffers":[
		{
			"byteLength":14608360,
			"uri":"8888.bin"
		}
	]
}
