{
	"asset":{
		"generator":"Khronos glTF Blender I/O v4.5.47",
		"version":"2.0"
	},
	"scene":0,
	"scenes":[
		{
			"name":"Scene",
			"nodes":[
				0,
				1,
				2,
				3,
				4,
				5,
				6,
				7,
				8,
				9,
				10,
				11,
				12,
				13,
				14,
				15,
				16,
				17,
				18,
				19,
				20,
				21,
				22,
				23,
				24,
				25,
				26,
				27,
				28,
				29,
				30,
				31,
				32
			]
		}
	],
	"nodes":[
		{
			"mesh":0,
			"name":"piece_rook_white_01",
			"scale":[
				5.560078144073486,
				5.560078144073486,
				5.560078144073486
			],
			"translation":[
				1.12651789188385,
				0.019796054810285568,
				-1.1250498294830322
			]
		},
		{
			"mesh":1,
			"name":"piece_pawn_white_01",
			"scale":[
				5.560078144073486,
				5.560078144073486,
				5.560078144073486
			],
			"translation":[
				1.12651789188385,
				0.019796054810285568,
				-0.8031874299049377
			]
		},
		{
			"mesh":2,
			"name":"piece_bishop_white_01",
			"scale":[
				5.560078144073486,
				5.560078144073486,
				5.560078144073486
			],
			"translation":[
				0.482793390750885,
				0.019796054810285568,
				-1.1250498294830322
			]
		},
		{
			"mesh":3,
			"name":"piece_queen_white",
			"scale":[
				5.560078144073486,
				5.560078144073486,
				5.560078144073486
			],
			"translation":[
				-0.16093112528324127,
				0.019796054810285568,
				-1.1250498294830322
			]
		},
		{
			"mesh":4,
			"name":"piece_king_white",
			"scale":[
				5.560078144073486,
				5.560078144073486,
				5.560078144073486
			],
			"translation":[
				0.16093112528324127,
				0.019796054810285568,
				-1.1250498294830322
			]
		},
		{
			"mesh":5,
			"name":"piece_knight_white_01",
			"scale":[
				5.560078144073486,
				5.560078144073486,
				5.560078144073486
			],
			"translation":[
				0.8046556115150452,
				0.019796054810285568,
				-1.1250498294830322
			]
		},
		{
			"mesh":6,
			"name":"board",
			"scale":[
				5.560078144073486,
				5.560078144073486,
				5.560078144073486
			],
			"translation":[
				0,
				-0.07690846920013428,
				0.00146810885053128
			]
		},
		{
			"mesh":7,
			"name":"piece_knight_white_02",
			"scale":[
				5.560078144073486,
				5.560078144073486,
				5.560078144073486
			],
			"translation":[
				-0.8046556115150452,
				0.019796054810285568,
				-1.1250498294830322
			]
		},
		{
			"mesh":8,
			"name":"piece_rook_white_02",
			"scale":[
				5.560078144073486,
				5.560078144073486,
				5.560078144073486
			],
			"translation":[
				-1.12651789188385,
				0.019796054810285568,
				-1.1250498294830322
			]
		},
		{
			"mesh":9,
			"name":"piece_bishop_white_02",
			"scale":[
				5.560078144073486,
				5.560078144073486,
				5.560078144073486
			],
			"translation":[
				-0.482793390750885,
				0.019796054810285568,
				-1.1250498294830322
			]
		},
		{
			"mesh":10,
			"name":"piece_pawn_white_02",
			"scale":[
				5.560078144073486,
				5.560078144073486,
				5.560078144073486
			],
			"translation":[
				0.8046556115150452,
				0.019796054810285568,
				-0.8031874299049377
			]
		},
		{
			"mesh":11,
			"name":"piece_pawn_white_03",
			"scale":[
				5.560078144073486,
				5.560078144073486,
				5.560078144073486
			],
			"translation":[
				0.482793390750885,
				0.019796054810285568,
				-0.8031874299049377
			]
		},
		{
			"mesh":12,
			"name":"piece_pawn_white_04",
			"scale":[
				5.560078144073486,
				5.560078144073486,
				5.560078144073486
			],
			"translation":[
				0.16093112528324127,
				0.019796054810285568,
				-0.8031874299049377
			]
		},
		{
			"mesh":13,
			"name":"piece_pawn_white_05",
			"scale":[
				5.560078144073486,
				5.560078144073486,
				5.560078144073486
			],
			"translation":[
				-0.16093112528324127,
				0.019796054810285568,
				-0.8031874299049377
			]
		},
		{
			"mesh":14,
			"name":"piece_pawn_white_06",
			"scale":[
				5.560078144073486,
				5.560078144073486,
				5.560078144073486
			],
			"translation":[
				-0.482793390750885,
				0.019796054810285568,
				-0.8031874299049377
			]
		},
		{
			"mesh":15,
			"name":"piece_pawn_white_07",
			"scale":[
				5.560078144073486,
				5.560078144073486,
				5.560078144073486
			],
			"translation":[
				-0.8046556115150452,
				0.019796054810285568,
				-0.8031874299049377
			]
		},
		{
			"mesh":16,
			"name":"piece_pawn_white_08",
			"scale":[
				5.560078144073486,
				5.560078144073486,
				5.560078144073486
			],
			"translation":[
				-1.12651789188385,
				0.019796054810285568,
				-0.8031874299049377
			]
		},
		{
			"mesh":17,
			"name":"piece_rook_black_01",
			"scale":[
				5.560078144073486,
				5.560078144073486,
				5.560078144073486
			],
			"translation":[
				-1.12651789188385,
				0.019796054810285568,
				1.1240476369857788
			]
		},
		{
			"mesh":18,
			"name":"piece_pawn_black_01",
			"scale":[
				5.560078144073486,
				5.560078144073486,
				5.560078144073486
			],
			"translation":[
				-1.12651789188385,
				0.019796054810285568,
				0.8021853566169739
			]
		},
		{
			"mesh":19,
			"name":"piece_bishop_black_01",
			"scale":[
				5.560078144073486,
				5.560078144073486,
				5.560078144073486
			],
			"translation":[
				-0.482793390750885,
				0.019796054810285568,
				1.1240476369857788
			]
		},
		{
			"mesh":20,
			"name":"piece_queen_black",
			"scale":[
				5.560078144073486,
				5.560078144073486,
				5.560078144073486
			],
			"translation":[
				-0.16093112528324127,
				0.019796054810285568,
				1.1240476369857788
			]
		},
		{
			"mesh":21,
			"name":"piece_king_black",
			"scale":[
				5.560078144073486,
				5.560078144073486,
				5.560078144073486
			],
			"translation":[
				0.16093102097511292,
				0.01979566179215908,
				1.1279852390289307
			]
		},
		{
			"mesh":22,
			"name":"piece_knight_black_01",
			"scale":[
				5.560078144073486,
				5.560078144073486,
				5.560078144073486
			],
			"translation":[
				-0.8046556115150452,
				0.019796054810285568,
				1.1240476369857788
			]
		},
		{
			"mesh":23,
			"name":"piece_knight_black_02",
			"scale":[
				5.560078144073486,
				5.560078144073486,
				5.560078144073486
			],
			"translation":[
				0.8046556115150452,
				0.019796054810285568,
				1.1240476369857788
			]
		},
		{
			"mesh":24,
			"name":"piece_rook_black_02",
			"scale":[
				5.560078144073486,
				5.560078144073486,
				5.560078144073486
			],
			"translation":[
				1.12651789188385,
				0.019796054810285568,
				1.1240476369857788
			]
		},
		{
			"mesh":25,
			"name":"piece_bishop_black_02",
			"scale":[
				5.560078144073486,
				5.560078144073486,
				5.560078144073486
			],
			"translation":[
				0.482793390750885,
				0.019796054810285568,
				1.1240476369857788
			]
		},
		{
			"mesh":26,
			"name":"piece_pawn_black_02",
			"scale":[
				5.560078144073486,
				5.560078144073486,
				5.560078144073486
			],
			"translation":[
				-0.8046556115150452,
				0.019796054810285568,
				0.8021853566169739
			]
		},
		{
			"mesh":27,
			"name":"piece_pawn_black_03",
			"scale":[
				5.560078144073486,
				5.560078144073486,
				5.560078144073486
			],
			"translation":[
				-0.482793390750885,
				0.019796054810285568,
				0.8021853566169739
			]
		},
		{
			"mesh":28,
			"name":"piece_pawn_black_04",
			"scale":[
				5.560078144073486,
				5.560078144073486,
				5.560078144073486
			],
			"translation":[
				-0.16093112528324127,
				0.019796054810285568,
				0.8021853566169739
			]
		},
		{
			"mesh":29,
			"name":"piece_pawn_black_05",
			"scale":[
				5.560078144073486,
				5.560078144073486,
				5.560078144073486
			],
			"translation":[
				0.16093112528324127,
				0.019796054810285568,
				0.8021853566169739
			]
		},
		{
			"mesh":30,
			"name":"piece_pawn_black_06",
			"scale":[
				5.560078144073486,
				5.560078144073486,
				5.560078144073486
			],
			"translation":[
				0.482793390750885,
				0.019796054810285568,
				0.8021853566169739
			]
		},
		{
			"mesh":31,
			"name":"piece_pawn_black_07",
			"scale":[
				5.560078144073486,
				5.560078144073486,
				5.560078144073486
			],
			"translation":[
				0.8046556115150452,
				0.019796054810285568,
				0.8021853566169739
			]
		},
		{
			"mesh":32,
			"name":"piece_pawn_black_08",
			"scale":[
				5.560078144073486,
				5.560078144073486,
				5.560078144073486
			],
			"translation":[
				1.12651789188385,
				0.019796054810285568,
				0.8021853566169739
			]
		}
	],
	"materials":[
		{
			"doubleSided":true,
			"name":"chess_set_pieces_white",
			"normalTexture":{
				"index":0
			},
			"pbrMetallicRoughness":{
				"baseColorTexture":{
					"index":1
				},
				"metallicFactor":0,
				"metallicRoughnessTexture":{
					"index":2
				}
			}
		},
		{
			"doubleSided":true,
			"name":"chess_set_board",
			"normalTexture":{
				"index":3
			},
			"pbrMetallicRoughness":{
				"baseColorTexture":{
					"index":4
				},
				"metallicFactor":0,
				"metallicRoughnessTexture":{
					"index":5
				}
			}
		},
		{
			"doubleSided":true,
			"name":"chess_set_pieces_black",
			"normalTexture":{
				"index":6
			},
			"pbrMetallicRoughness":{
				"baseColorTexture":{
					"index":7
				},
				"metallicFactor":0,
				"metallicRoughnessTexture":{
					"index":8
				}
			}
		}
	],
	"meshes":[
		{
			"name":"ChessRook.003",
			"primitives":[
				{
					"attributes":{
						"POSITION":0,
						"NORMAL":1,
						"TEXCOORD_0":2
					},
					"indices":3,
					"material":0
				}
			]
		},
		{
			"name":"Cylinder.002",
			"primitives":[
				{
					"attributes":{
						"POSITION":4,
						"NORMAL":5,
						"TEXCOORD_0":6
					},
					"indices":7,
					"material":0
				}
			]
		},
		{
			"name":"Cylinder.003",
			"primitives":[
				{
					"attributes":{
						"POSITION":8,
						"NORMAL":9,
						"TEXCOORD_0":10
					},
					"indices":11,
					"material":0
				}
			]
		},
		{
			"name":"Cylinder.005",
			"primitives":[
				{
					"attributes":{
						"POSITION":12,
						"NORMAL":13,
						"TEXCOORD_0":14
					},
					"indices":15,
					"material":0
				}
			]
		},
		{
			"name":"Cylinder.006",
			"primitives":[
				{
					"attributes":{
						"POSITION":16,
						"NORMAL":17,
						"TEXCOORD_0":18,
						"TEXCOORD_1":19
					},
					"indices":20,
					"material":0
				}
			]
		},
		{
			"name":"mesh.025",
			"primitives":[
				{
					"attributes":{
						"POSITION":21,
						"NORMAL":22,
						"TEXCOORD_0":23
					},
					"indices":24,
					"material":0
				}
			]
		},
		{
			"name":"Cube.004",
			"primitives":[
				{
					"attributes":{
						"POSITION":25,
						"NORMAL":26,
						"TEXCOORD_0":27
					},
					"indices":28,
					"material":1
				}
			]
		},
		{
			"name":"mesh.006",
			"primitives":[
				{
					"attributes":{
						"POSITION":29,
						"NORMAL":30,
						"TEXCOORD_0":31
					},
					"indices":24,
					"material":0
				}
			]
		},
		{
			"name":"ChessRook.002",
			"primitives":[
				{
					"attributes":{
						"POSITION":32,
						"NORMAL":33,
						"TEXCOORD_0":34
					},
					"indices":3,
					"material":0
				}
			]
		},
		{
			"name":"Cylinder.001",
			"primitives":[
				{
					"attributes":{
						"POSITION":35,
						"NORMAL":36,
						"TEXCOORD_0":37
					},
					"indices":11,
					"material":0
				}
			]
		},
		{
			"name":"Cylinder.014",
			"primitives":[
				{
					"attributes":{
						"POSITION":38,
						"NORMAL":39,
						"TEXCOORD_0":40
					},
					"indices":7,
					"material":0
				}
			]
		},
		{
			"name":"Cylinder.015",
			"primitives":[
				{
					"attributes":{
						"POSITION":41,
						"NORMAL":42,
						"TEXCOORD_0":43
					},
					"indices":7,
					"material":0
				}
			]
		},
		{
			"name":"Cylinder.016",
			"primitives":[
				{
					"attributes":{
						"POSITION":44,
						"NORMAL":45,
						"TEXCOORD_0":46
					},
					"indices":7,
					"material":0
				}
			]
		},
		{
			"name":"Cylinder.017",
			"primitives":[
				{
					"attributes":{
						"POSITION":47,
						"NORMAL":48,
						"TEXCOORD_0":49
					},
					"indices":7,
					"material":0
				}
			]
		},
		{
			"name":"Cylinder.018",
			"primitives":[
				{
					"attributes":{
						"POSITION":50,
						"NORMAL":51,
						"TEXCOORD_0":52
					},
					"indices":7,
					"material":0
				}
			]
		},
		{
			"name":"Cylinder.019",
			"primitives":[
				{
					"attributes":{
						"POSITION":53,
						"NORMAL":54,
						"TEXCOORD_0":55
					},
					"indices":7,
					"material":0
				}
			]
		},
		{
			"name":"Cylinder.020",
			"primitives":[
				{
					"attributes":{
						"POSITION":56,
						"NORMAL":57,
						"TEXCOORD_0":58
					},
					"indices":7,
					"material":0
				}
			]
		},
		{
			"name":"ChessRook.007",
			"primitives":[
				{
					"attributes":{
						"POSITION":59,
						"NORMAL":60,
						"TEXCOORD_0":61
					},
					"indices":62,
					"material":2
				}
			]
		},
		{
			"name":"Cylinder.021",
			"primitives":[
				{
					"attributes":{
						"POSITION":63,
						"NORMAL":64,
						"TEXCOORD_0":65
					},
					"indices":66,
					"material":2
				}
			]
		},
		{
			"name":"Cylinder.022",
			"primitives":[
				{
					"attributes":{
						"POSITION":67,
						"NORMAL":68,
						"TEXCOORD_0":69
					},
					"indices":70,
					"material":2
				}
			]
		},
		{
			"name":"Cylinder.023",
			"primitives":[
				{
					"attributes":{
						"POSITION":71,
						"NORMAL":72,
						"TEXCOORD_0":73
					},
					"indices":15,
					"material":2
				}
			]
		},
		{
			"name":"Cylinder.024",
			"primitives":[
				{
					"attributes":{
						"POSITION":74,
						"NORMAL":75,
						"TEXCOORD_0":76,
						"TEXCOORD_1":77
					},
					"indices":20,
					"material":2
				}
			]
		},
		{
			"name":"mesh.007",
			"primitives":[
				{
					"attributes":{
						"POSITION":78,
						"NORMAL":79,
						"TEXCOORD_0":80
					},
					"indices":24,
					"material":2
				}
			]
		},
		{
			"name":"mesh.008",
			"primitives":[
				{
					"attributes":{
						"POSITION":81,
						"NORMAL":82,
						"TEXCOORD_0":83
					},
					"indices":24,
					"material":2
				}
			]
		},
		{
			"name":"ChessRook.008",
			"primitives":[
				{
					"attributes":{
						"POSITION":84,
						"NORMAL":85,
						"TEXCOORD_0":86
					},
					"indices":87,
					"material":2
				}
			]
		},
		{
			"name":"Cylinder.025",
			"primitives":[
				{
					"attributes":{
						"POSITION":88,
						"NORMAL":89,
						"TEXCOORD_0":90
					},
					"indices":70,
					"material":2
				}
			]
		},
		{
			"name":"Cylinder.026",
			"primitives":[
				{
					"attributes":{
						"POSITION":91,
						"NORMAL":92,
						"TEXCOORD_0":93
					},
					"indices":66,
					"material":2
				}
			]
		},
		{
			"name":"Cylinder.027",
			"primitives":[
				{
					"attributes":{
						"POSITION":94,
						"NORMAL":95,
						"TEXCOORD_0":96
					},
					"indices":66,
					"material":2
				}
			]
		},
		{
			"name":"Cylinder.028",
			"primitives":[
				{
					"attributes":{
						"POSITION":97,
						"NORMAL":98,
						"TEXCOORD_0":99
					},
					"indices":66,
					"material":2
				}
			]
		},
		{
			"name":"Cylinder.029",
			"primitives":[
				{
					"attributes":{
						"POSITION":100,
						"NORMAL":101,
						"TEXCOORD_0":102
					},
					"indices":66,
					"material":2
				}
			]
		},
		{
			"name":"Cylinder.030",
			"primitives":[
				{
					"attributes":{
						"POSITION":103,
						"NORMAL":104,
						"TEXCOORD_0":105
					},
					"indices":66,
					"material":2
				}
			]
		},
		{
			"name":"Cylinder.031",
			"primitives":[
				{
					"attributes":{
						"POSITION":106,
						"NORMAL":107,
						"TEXCOORD_0":108
					},
					"indices":66,
					"material":2
				}
			]
		},
		{
			"name":"Cylinder.032",
			"primitives":[
				{
					"attributes":{
						"POSITION":109,
						"NORMAL":110,
						"TEXCOORD_0":111
					},
					"indices":66,
					"material":2
				}
			]
		}
	],
	"textures":[
		{
			"sampler":0,
			"source":0
		},
		{
			"sampler":0,
			"source":1
		},
		{
			"sampler":0,
			"source":2
		},
		{
			"sampler":0,
			"source":3
		},
		{
			"sampler":0,
			"source":4
		},
		{
			"sampler":0,
			"source":5
		},
		{
			"sampler":0,
			"source":6
		},
		{
			"sampler":0,
			"source":7
		},
		{
			"sampler":0,
			"source":8
		}
	],
	"images":[
		{
			"mimeType":"image/jpeg",
			"name":"chess_set_pieces_white_nor_gl_2k",
			"uri":"chess_set_pieces_white_nor_gl_2k.jpg"
		},
		{
			"mimeType":"image/jpeg",
			"name":"chess_set_pieces_white_diff_2k",
			"uri":"chess_set_pieces_white_diff_2k.jpg"
		},
		{
			"mimeType":"image/jpeg",
			"name":"chess_set_pieces_white_arm_2k",
			"uri":"chess_set_pieces_white_arm_2k.jpg"
		},
		{
			"mimeType":"image/jpeg",
			"name":"chess_set_board_nor_gl_2k",
			"uri":"chess_set_board_nor_gl_2k.jpg"
		},
		{
			"mimeType":"image/jpeg",
			"name":"chess_set_board_diff_2k",
			"uri":"chess_set_board_diff_2k.jpg"
		},
		{
			"mimeType":"image/jpeg",
			"name":"chess_set_board_arm_2k",
			"uri":"chess_set_board_arm_2k.jpg"
		},
		{
			"mimeType":"image/jpeg",
			"name":"chess_set_pieces_black_nor_gl_2k",
			"uri":"chess_set_pieces_black_nor_gl_2k.jpg"
		},
		{
			"mimeType":"image/jpeg",
			"name":"chess_set_pieces_black_diff_2k",
			"uri":"chess_set_pieces_black_diff_2k.jpg"
		},
		{
			"mimeType":"image/jpeg",
			"name":"chess_set_pieces_black_arm_2k",
			"uri":"chess_set_pieces_black_arm_2k.jpg"
		}
	],
	"accessors":[
		{
			"bufferView":0,
			"componentType":5126,
			"count":2030,
			"max":[
				0.018426168709993362,
				0.060513511300086975,
				0.01856144331395626
			],
			"min":[
				-0.018329130485653877,
				-5.737451647291891e-05,
				-0.018137037754058838
			],
			"type":"VEC3"
		},
		{
			"bufferView":1,
			"componentType":5126,
			"count":2030,
			"type":"VEC3"
		},
		{
			"bufferView":2,
			"componentType":5126,
			"count":2030,
			"type":"VEC2"
		},
		{
			"bufferView":3,
			"componentType":5123,
			"count":8928,
			"type":"SCALAR"
		},
		{
			"bufferView":4,
			"componentType":5126,
			"count":1038,
			"max":[
				0.014483553357422352,
				0.053703341633081436,
				0.01444040797650814
			],
			"min":[
				-0.014420497231185436,
				-7.083472031155225e-09,
				-0.014433925040066242
			],
			"type":"VEC3"
		},
		{
			"bufferView":5,
			"componentType":5126,
			"count":1038,
			"type":"VEC3"
		},
		{
			"bufferView":6,
			"componentType":5126,
			"count":1038,
			"type":"VEC2"
		},
		{
			"bufferView":7,
			"componentType":5123,
			"count":4920,
			"type":"SCALAR"
		},
		{
			"bufferView":8,
			"componentType":5126,
			"count":1851,
			"max":[
				0.01612257957458496,
				0.08581218123435974,
				0.016050374135375023
			],
			"min":[
				-0.016068585216999054,
				0,
				-0.0161648690700531
			],
			"type":"VEC3"
		},
		{
			"bufferView":9,
			"componentType":5126,
			"count":1851,
			"type":"VEC3"
		},
		{
			"bufferView":10,
			"componentType":5126,
			"count":1851,
			"type":"VEC2"
		},
		{
			"bufferView":11,
			"componentType":5123,
			"count":8772,
			"type":"SCALAR"
		},
		{
			"bufferView":12,
			"componentType":5126,
			"count":1827,
			"max":[
				0.020295275375247,
				0.09045390784740448,
				0.020382003858685493
			],
			"min":[
				-0.02028528042137623,
				-0.00026654338580556214,
				-0.020381664857268333
			],
			"type":"VEC3"
		},
		{
			"bufferView":13,
			"componentType":5126,
			"count":1827,
			"type":"VEC3"
		},
		{
			"bufferView":14,
			"componentType":5126,
			"count":1827,
			"type":"VEC2"
		},
		{
			"bufferView":15,
			"componentType":5123,
			"count":8820,
			"type":"SCALAR"
		},
		{
			"bufferView":16,
			"componentType":5126,
			"count":2643,
			"max":[
				0.02075229585170746,
				0.09500318765640259,
				0.02086399495601654
			],
			"min":[
				-0.020774859935045242,
				0,
				-0.02085612155497074
			],
			"type":"VEC3"
		},
		{
			"bufferView":17,
			"componentType":5126,
			"count":2643,
			"type":"VEC3"
		},
		{
			"bufferView":18,
			"componentType":5126,
			"count":2643,
			"type":"VEC2"
		},
		{
			"bufferView":19,
			"componentType":5126,
			"count":2643,
			"type":"VEC2"
		},
		{
			"bufferView":20,
			"componentType":5123,
			"count":12516,
			"type":"SCALAR"
		},
		{
			"bufferView":21,
			"componentType":5126,
			"count":1705,
			"max":[
				0.019403478130698204,
				0.07499857991933823,
				0.024384917691349983
			],
			"min":[
				-0.019391505047678947,
				-3.755149080575393e-09,
				-0.02099723182618618
			],
			"type":"VEC3"
		},
		{
			"bufferView":22,
			"componentType":5126,
			"count":1705,
			"type":"VEC3"
		},
		{
			"bufferView":23,
			"componentType":5126,
			"count":1705,
			"type":"VEC2"
		},
		{
			"bufferView":24,
			"componentType":5123,
			"count":7986,
			"type":"SCALAR"
		},
		{
			"bufferView":25,
			"componentType":5126,
			"count":1526,
			"max":[
				0.27661898732185364,
				0.017392585054039955,
				0.27661898732185364
			],
			"min":[
				-0.27661898732185364,
				4.2891606426564977e-05,
				-0.27661898732185364
			],
			"type":"VEC3"
		},
		{
			"bufferView":26,
			"componentType":5126,
			"count":1526,
			"type":"VEC3"
		},
		{
			"bufferView":27,
			"componentType":5126,
			"count":1526,
			"type":"VEC2"
		},
		{
			"bufferView":28,
			"componentType":5123,
			"count":6624,
			"type":"SCALAR"
		},
		{
			"bufferView":29,
			"componentType":5126,
			"count":1705,
			"max":[
				0.019403478130698204,
				0.07499857991933823,
				0.024384917691349983
			],
			"min":[
				-0.019391505047678947,
				-3.755149080575393e-09,
				-0.02099723182618618
			],
			"type":"VEC3"
		},
		{
			"bufferView":30,
			"componentType":5126,
			"count":1705,
			"type":"VEC3"
		},
		{
			"bufferView":31,
			"componentType":5126,
			"count":1705,
			"type":"VEC2"
		},
		{
			"bufferView":32,
			"componentType":5126,
			"count":2030,
			"max":[
				0.018426168709993362,
				0.060513511300086975,
				0.01856144331395626
			],
			"min":[
				-0.018329130485653877,
				-5.737451647291891e-05,
				-0.018137037754058838
			],
			"type":"VEC3"
		},
		{
			"bufferView":33,
			"componentType":5126,
			"count":2030,
			"type":"VEC3"
		},
		{
			"bufferView":34,
			"componentType":5126,
			"count":2030,
			"type":"VEC2"
		},
		{
			"bufferView":35,
			"componentType":5126,
			"count":1851,
			"max":[
				0.01612257957458496,
				0.08581218123435974,
				0.016050374135375023
			],
			"min":[
				-0.016068585216999054,
				0,
				-0.0161648690700531
			],
			"type":"VEC3"
		},
		{
			"bufferView":36,
			"componentType":5126,
			"count":1851,
			"type":"VEC3"
		},
		{
			"bufferView":37,
			"componentType":5126,
			"count":1851,
			"type":"VEC2"
		},
		{
			"bufferView":38,
			"componentType":5126,
			"count":1038,
			"max":[
				0.014483553357422352,
				0.053703341633081436,
				0.01444040797650814
			],
			"min":[
				-0.014420497231185436,
				-7.083472031155225e-09,
				-0.014433925040066242
			],
			"type":"VEC3"
		},
		{
			"bufferView":39,
			"componentType":5126,
			"count":1038,
			"type":"VEC3"
		},
		{
			"bufferView":40,
			"componentType":5126,
			"count":1038,
			"type":"VEC2"
		},
		{
			"bufferView":41,
			"componentType":5126,
			"count":1038,
			"max":[
				0.014483553357422352,
				0.053703341633081436,
				0.01444040797650814
			],
			"min":[
				-0.014420497231185436,
				-7.083472031155225e-09,
				-0.014433925040066242
			],
			"type":"VEC3"
		},
		{
			"bufferView":42,
			"componentType":5126,
			"count":1038,
			"type":"VEC3"
		},
		{
			"bufferView":43,
			"componentType":5126,
			"count":1038,
			"type":"VEC2"
		},
		{
			"bufferView":44,
			"componentType":5126,
			"count":1038,
			"max":[
				0.014483553357422352,
				0.053703341633081436,
				0.01444040797650814
			],
			"min":[
				-0.014420497231185436,
				-7.083472031155225e-09,
				-0.014433925040066242
			],
			"type":"VEC3"
		},
		{
			"bufferView":45,
			"componentType":5126,
			"count":1038,
			"type":"VEC3"
		},
		{
			"bufferView":46,
			"componentType":5126,
			"count":1038,
			"type":"VEC2"
		},
		{
			"bufferView":47,
			"componentType":5126,
			"count":1038,
			"max":[
				0.014483553357422352,
				0.053703341633081436,
				0.01444040797650814
			],
			"min":[
				-0.014420497231185436,
				-7.083472031155225e-09,
				-0.014433925040066242
			],
			"type":"VEC3"
		},
		{
			"bufferView":48,
			"componentType":5126,
			"count":1038,
			"type":"VEC3"
		},
		{
			"bufferView":49,
			"componentType":5126,
			"count":1038,
			"type":"VEC2"
		},
		{
			"bufferView":50,
			"componentType":5126,
			"count":1038,
			"max":[
				0.014483553357422352,
				0.053703341633081436,
				0.01444040797650814
			],
			"min":[
				-0.014420497231185436,
				-7.083472031155225e-09,
				-0.014433925040066242
			],
			"type":"VEC3"
		},
		{
			"bufferView":51,
			"componentType":5126,
			"count":1038,
			"type":"VEC3"
		},
		{
			"bufferView":52,
			"componentType":5126,
			"count":1038,
			"type":"VEC2"
		},
		{
			"bufferView":53,
			"componentType":5126,
			"count":1038,
			"max":[
				0.014483553357422352,
				0.053703341633081436,
				0.01444040797650814
			],
			"min":[
				-0.014420497231185436,
				-7.083472031155225e-09,
				-0.014433925040066242
			],
			"type":"VEC3"
		},
		{
			"bufferView":54,
			"componentType":5126,
			"count":1038,
			"type":"VEC3"
		},
		{
			"bufferView":55,
			"componentType":5126,
			"count":1038,
			"type":"VEC2"
		},
		{
			"bufferView":56,
			"componentType":5126,
			"count":1038,
			"max":[
				0.014483553357422352,
				0.053703341633081436,
				0.01444040797650814
			],
			"min":[
				-0.014420497231185436,
				-7.083472031155225e-09,
				-0.014433925040066242
			],
			"type":"VEC3"
		},
		{
			"bufferView":57,
			"componentType":5126,
			"count":1038,
			"type":"VEC3"
		},
		{
			"bufferView":58,
			"componentType":5126,
			"count":1038,
			"type":"VEC2"
		},
		{
			"bufferView":59,
			"componentType":5126,
			"count":2031,
			"max":[
				0.018329130485653877,
				0.060513511300086975,
				0.018137037754058838
			],
			"min":[
				-0.018426168709993362,
				-5.737451647291891e-05,
				-0.01856144331395626
			],
			"type":"VEC3"
		},
		{
			"bufferView":60,
			"componentType":5126,
			"count":2031,
			"type":"VEC3"
		},
		{
			"bufferView":61,
			"componentType":5126,
			"count":2031,
			"type":"VEC2"
		},
		{
			"bufferView":62,
			"componentType":5123,
			"count":8928,
			"type":"SCALAR"
		},
		{
			"bufferView":63,
			"componentType":5126,
			"count":1039,
			"max":[
				0.014420497231185436,
				0.053703341633081436,
				0.014433925040066242
			],
			"min":[
				-0.014483553357422352,
				-7.083472031155225e-09,
				-0.01444040797650814
			],
			"type":"VEC3"
		},
		{
			"bufferView":64,
			"componentType":5126,
			"count":1039,
			"type":"VEC3"
		},
		{
			"bufferView":65,
			"componentType":5126,
			"count":1039,
			"type":"VEC2"
		},
		{
			"bufferView":66,
			"componentType":5123,
			"count":4920,
			"type":"SCALAR"
		},
		{
			"bufferView":67,
			"componentType":5126,
			"count":1850,
			"max":[
				0.016068587079644203,
				0.08581218123435974,
				0.0161648690700531
			],
			"min":[
				-0.01612257771193981,
				0,
				-0.016050374135375023
			],
			"type":"VEC3"
		},
		{
			"bufferView":68,
			"componentType":5126,
			"count":1850,
			"type":"VEC3"
		},
		{
			"bufferView":69,
			"componentType":5126,
			"count":1850,
			"type":"VEC2"
		},
		{
			"bufferView":70,
			"componentType":5123,
			"count":8772,
			"type":"SCALAR"
		},
		{
			"bufferView":71,
			"componentType":5126,
			"count":1827,
			"max":[
				0.020285282284021378,
				0.09045390784740448,
				0.020381664857268333
			],
			"min":[
				-0.02029527723789215,
				-0.00026654338580556214,
				-0.020382003858685493
			],
			"type":"VEC3"
		},
		{
			"bufferView":72,
			"componentType":5126,
			"count":1827,
			"type":"VEC3"
		},
		{
			"bufferView":73,
			"componentType":5126,
			"count":1827,
			"type":"VEC2"
		},
		{
			"bufferView":74,
			"componentType":5126,
			"count":2643,
			"max":[
				0.020774858072400093,
				0.09500318765640259,
				0.02085612155497074
			],
			"min":[
				-0.02075229398906231,
				0,
				-0.02086399495601654
			],
			"type":"VEC3"
		},
		{
			"bufferView":75,
			"componentType":5126,
			"count":2643,
			"type":"VEC3"
		},
		{
			"bufferView":76,
			"componentType":5126,
			"count":2643,
			"type":"VEC2"
		},
		{
			"bufferView":77,
			"componentType":5126,
			"count":2643,
			"type":"VEC2"
		},
		{
			"bufferView":78,
			"componentType":5126,
			"count":1705,
			"max":[
				0.019391505047678947,
				0.07499857991933823,
				0.02099723182618618
			],
			"min":[
				-0.019403478130698204,
				-3.755149080575393e-09,
				-0.024384917691349983
			],
			"type":"VEC3"
		},
		{
			"bufferView":79,
			"componentType":5126,
			"count":1705,
			"type":"VEC3"
		},
		{
			"bufferView":80,
			"componentType":5126,
			"count":1705,
			"type":"VEC2"
		},
		{
			"bufferView":81,
			"componentType":5126,
			"count":1705,
			"max":[
				0.019391505047678947,
				0.07499857991933823,
				0.02099723182618618
			],
			"min":[
				-0.019403478130698204,
				-3.755149080575393e-09,
				-0.024384917691349983
			],
			"type":"VEC3"
		},
		{
			"bufferView":82,
			"componentType":5126,
			"count":1705,
			"type":"VEC3"
		},
		{
			"bufferView":83,
			"componentType":5126,
			"count":1705,
			"type":"VEC2"
		},
		{
			"bufferView":84,
			"componentType":5126,
			"count":2030,
			"max":[
				0.018329130485653877,
				0.060513511300086975,
				0.018136857077479362
			],
			"min":[
				-0.018426168709993362,
				-5.737451647291891e-05,
				-0.018561260774731636
			],
			"type":"VEC3"
		},
		{
			"bufferView":85,
			"componentType":5126,
			"count":2030,
			"type":"VEC3"
		},
		{
			"bufferView":86,
			"componentType":5126,
			"count":2030,
			"type":"VEC2"
		},
		{
			"bufferView":87,
			"componentType":5123,
			"count":8928,
			"type":"SCALAR"
		},
		{
			"bufferView":88,
			"componentType":5126,
			"count":1850,
			"max":[
				0.016068587079644203,
				0.08581218123435974,
				0.0161648690700531
			],
			"min":[
				-0.01612257771193981,
				0,
				-0.016050374135375023
			],
			"type":"VEC3"
		},
		{
			"bufferView":89,
			"componentType":5126,
			"count":1850,
			"type":"VEC3"
		},
		{
			"bufferView":90,
			"componentType":5126,
			"count":1850,
			"type":"VEC2"
		},
		{
			"bufferView":91,
			"componentType":5126,
			"count":1039,
			"max":[
				0.014420497231185436,
				0.053703341633081436,
				0.014433925040066242
			],
			"min":[
				-0.014483553357422352,
				-7.083472031155225e-09,
				-0.01444040797650814
			],
			"type":"VEC3"
		},
		{
			"bufferView":92,
			"componentType":5126,
			"count":1039,
			"type":"VEC3"
		},
		{
			"bufferView":93,
			"componentType":5126,
			"count":1039,
			"type":"VEC2"
		},
		{
			"bufferView":94,
			"componentType":5126,
			"count":1039,
			"max":[
				0.014420497231185436,
				0.053703341633081436,
				0.014433925040066242
			],
			"min":[
				-0.014483553357422352,
				-7.083472031155225e-09,
				-0.01444040797650814
			],
			"type":"VEC3"
		},
		{
			"bufferView":95,
			"componentType":5126,
			"count":1039,
			"type":"VEC3"
		},
		{
			"bufferView":96,
			"componentType":5126,
			"count":1039,
			"type":"VEC2"
		},
		{
			"bufferView":97,
			"componentType":5126,
			"count":1039,
			"max":[
				0.014420497231185436,
				0.053703341633081436,
				0.014433925040066242
			],
			"min":[
				-0.014483553357422352,
				-7.083472031155225e-09,
				-0.01444040797650814
			],
			"type":"VEC3"
		},
		{
			"bufferView":98,
			"componentType":5126,
			"count":1039,
			"type":"VEC3"
		},
		{
			"bufferView":99,
			"componentType":5126,
			"count":1039,
			"type":"VEC2"
		},
		{
			"bufferView":100,
			"componentType":5126,
			"count":1039,
			"max":[
				0.014420497231185436,
				0.053703341633081436,
				0.014433925040066242
			],
			"min":[
				-0.014483553357422352,
				-7.083472031155225e-09,
				-0.01444040797650814
			],
			"type":"VEC3"
		},
		{
			"bufferView":101,
			"componentType":5126,
			"count":1039,
			"type":"VEC3"
		},
		{
			"bufferView":102,
			"componentType":5126,
			"count":1039,
			"type":"VEC2"
		},
		{
			"bufferView":103,
			"componentType":5126,
			"count":1039,
			"max":[
				0.014420497231185436,
				0.053703341633081436,
				0.014433925040066242
			],
			"min":[
				-0.014483553357422352,
				-7.083472031155225e-09,
				-0.01444040797650814
			],
			"type":"VEC3"
		},
		{
			"bufferView":104,
			"componentType":5126,
			"count":1039,
			"type":"VEC3"
		},
		{
			"bufferView":105,
			"componentType":5126,
			"count":1039,
			"type":"VEC2"
		},
		{
			"bufferView":106,
			"componentType":5126,
			"count":1039,
			"max":[
				0.014420497231185436,
				0.053703341633081436,
				0.014433925040066242
			],
			"min":[
				-0.014483553357422352,
				-7.083472031155225e-09,
				-0.01444040797650814
			],
			"type":"VEC3"
		},
		{
			"bufferView":107,
			"componentType":5126,
			"count":1039,
			"type":"VEC3"
		},
		{
			"bufferView":108,
			"componentType":5126,
			"count":1039,
			"type":"VEC2"
		},
		{
			"bufferView":109,
			"componentType":5126,
			"count":1039,
			"max":[
				0.014420497231185436,
				0.053703341633081436,
				0.014433925040066242
			],
			"min":[
				-0.014483553357422352,
				-7.083472031155225e-09,
				-0.01444040797650814
			],
			"type":"VEC3"
		},
		{
			"bufferView":110,
			"componentType":5126,
			"count":1039,
			"type":"VEC3"
		},
		{
			"bufferView":111,
			"componentType":5126,
			"count":1039,
			"type":"VEC2"
		}
	],
	"bufferViews":[
		{
			"buffer":0,
			"byteLength":24360,
			"byteOffset":0,
			"target":34962
		},
		{
			"buffer":0,
			"byteLength":24360,
			"byteOffset":24360,
			"target":34962
		},
		{
			"buffer":0,
			"byteLength":16240,
			"byteOffset":48720,
			"target":34962
		},
		{
			"buffer":0,
			"byteLength":17856,
			"byteOffset":64960,
			"target":34963
		},
		{
			"buffer":0,
			"byteLength":12456,
			"byteOffset":82816,
			"target":34962
		},
		{
			"buffer":0,
			"byteLength":12456,
			"byteOffset":95272,
			"target":34962
		},
		{
			"buffer":0,
			"byteLength":8304,
			"byteOffset":107728,
			"target":34962
		},
		{
			"buffer":0,
			"byteLength":9840,
			"byteOffset":116032,
			"target":34963
		},
		{
			"buffer":0,
			"byteLength":22212,
			"byteOffset":125872,
			"target":34962
		},
		{
			"buffer":0,
			"byteLength":22212,
			"byteOffset":148084,
			"target":34962
		},
		{
			"buffer":0,
			"byteLength":14808,
			"byteOffset":170296,
			"target":34962
		},
		{
			"buffer":0,
			"byteLength":17544,
			"byteOffset":185104,
			"target":34963
		},
		{
			"buffer":0,
			"byteLength":21924,
			"byteOffset":202648,
			"target":34962
		},
		{
			"buffer":0,
			"byteLength":21924,
			"byteOffset":224572,
			"target":34962
		},
		{
			"buffer":0,
			"byteLength":14616,
			"byteOffset":246496,
			"target":34962
		},
		{
			"buffer":0,
			"byteLength":17640,
			"byteOffset":261112,
			"target":34963
		},
		{
			"buffer":0,
			"byteLength":31716,
			"byteOffset":278752,
			"target":34962
		},
		{
			"buffer":0,
			"byteLength":31716,
			"byteOffset":310468,
			"target":34962
		},
		{
			"buffer":0,
			"byteLength":21144,
			"byteOffset":342184,
			"target":34962
		},
		{
			"buffer":0,
			"byteLength":21144,
			"byteOffset":363328,
			"target":34962
		},
		{
			"buffer":0,
			"byteLength":25032,
			"byteOffset":384472,
			"target":34963
		},
		{
			"buffer":0,
			"byteLength":20460,
			"byteOffset":409504,
			"target":34962
		},
		{
			"buffer":0,
			"byteLength":20460,
			"byteOffset":429964,
			"target":34962
		},
		{
			"buffer":0,
			"byteLength":13640,
			"byteOffset":450424,
			"target":34962
		},
		{
			"buffer":0,
			"byteLength":15972,
			"byteOffset":464064,
			"target":34963
		},
		{
			"buffer":0,
			"byteLength":18312,
			"byteOffset":480036,
			"target":34962
		},
		{
			"buffer":0,
			"byteLength":18312,
			"byteOffset":498348,
			"target":34962
		},
		{
			"buffer":0,
			"byteLength":12208,
			"byteOffset":516660,
			"target":34962
		},
		{
			"buffer":0,
			"byteLength":13248,
			"byteOffset":528868,
			"target":34963
		},
		{
			"buffer":0,
			"byteLength":20460,
			"byteOffset":542116,
			"target":34962
		},
		{
			"buffer":0,
			"byteLength":20460,
			"byteOffset":562576,
			"target":34962
		},
		{
			"buffer":0,
			"byteLength":13640,
			"byteOffset":583036,
			"target":34962
		},
		{
			"buffer":0,
			"byteLength":24360,
			"byteOffset":596676,
			"target":34962
		},
		{
			"buffer":0,
			"byteLength":24360,
			"byteOffset":621036,
			"target":34962
		},
		{
			"buffer":0,
			"byteLength":16240,
			"byteOffset":645396,
			"target":34962
		},
		{
			"buffer":0,
			"byteLength":22212,
			"byteOffset":661636,
			"target":34962
		},
		{
			"buffer":0,
			"byteLength":22212,
			"byteOffset":683848,
			"target":34962
		},
		{
			"buffer":0,
			"byteLength":14808,
			"byteOffset":706060,
			"target":34962
		},
		{
			"buffer":0,
			"byteLength":12456,
			"byteOffset":720868,
			"target":34962
		},
		{
			"buffer":0,
			"byteLength":12456,
			"byteOffset":733324,
			"target":34962
		},
		{
			"buffer":0,
			"byteLength":8304,
			"byteOffset":745780,
			"target":34962
		},
		{
			"buffer":0,
			"byteLength":12456,
			"byteOffset":754084,
			"target":34962
		},
		{
			"buffer":0,
			"byteLength":12456,
			"byteOffset":766540,
			"target":34962
		},
		{
			"buffer":0,
			"byteLength":8304,
			"byteOffset":778996,
			"target":34962
		},
		{
			"buffer":0,
			"byteLength":12456,
			"byteOffset":787300,
			"target":34962
		},
		{
			"buffer":0,
			"byteLength":12456,
			"byteOffset":799756,
			"target":34962
		},
		{
			"buffer":0,
			"byteLength":8304,
			"byteOffset":812212,
			"target":34962
		},
		{
			"buffer":0,
			"byteLength":12456,
			"byteOffset":820516,
			"target":34962
		},
		{
			"buffer":0,
			"byteLength":12456,
			"byteOffset":832972,
			"target":34962
		},
		{
			"buffer":0,
			"byteLength":8304,
			"byteOffset":845428,
			"target":34962
		},
		{
			"buffer":0,
			"byteLength":12456,
			"byteOffset":853732,
			"target":34962
		},
		{
			"buffer":0,
			"byteLength":12456,
			"byteOffset":866188,
			"target":34962
		},
		{
			"buffer":0,
			"byteLength":8304,
			"byteOffset":878644,
			"target":34962
		},
		{
			"buffer":0,
			"byteLength":12456,
			"byteOffset":886948,
			"target":34962
		},
		{
			"buffer":0,
			"byteLength":12456,
			"byteOffset":899404,
			"target":34962
		},
		{
			"buffer":0,
			"byteLength":8304,
			"byteOffset":911860,
			"target":34962
		},
		{
			"buffer":0,
			"byteLength":12456,
			"byteOffset":920164,
			"target":34962
		},
		{
			"buffer":0,
			"byteLength":12456,
			"byteOffset":932620,
			"target":34962
		},
		{
			"buffer":0,
			"byteLength":8304,
			"byteOffset":945076,
			"target":34962
		},
		{
			"buffer":0,
			"byteLength":24372,
			"byteOffset":953380,
			"target":34962
		},
		{
			"buffer":0,
			"byteLength":24372,
			"byteOffset":977752,
			"target":34962
		},
		{
			"buffer":0,
			"byteLength":16248,
			"byteOffset":1002124,
			"target":34962
		},
		{
			"buffer":0,
			"byteLength":17856,
			"byteOffset":1018372,
			"target":34963
		},
		{
			"buffer":0,
			"byteLength":12468,
			"byteOffset":1036228,
			"target":34962
		},
		{
			"buffer":0,
			"byteLength":12468,
			"byteOffset":1048696,
			"target":34962
		},
		{
			"buffer":0,
			"byteLength":8312,
			"byteOffset":1061164,
			"target":34962
		},
		{
			"buffer":0,
			"byteLength":9840,
			"byteOffset":1069476,
			"target":34963
		},
		{
			"buffer":0,
			"byteLength":22200,
			"byteOffset":1079316,
			"target":34962
		},
		{
			"buffer":0,
			"byteLength":22200,
			"byteOffset":1101516,
			"target":34962
		},
		{
			"buffer":0,
			"byteLength":14800,
			"byteOffset":1123716,
			"target":34962
		},
		{
			"buffer":0,
			"byteLength":17544,
			"byteOffset":1138516,
			"target":34963
		},
		{
			"buffer":0,
			"byteLength":21924,
			"byteOffset":1156060,
			"target":34962
		},
		{
			"buffer":0,
			"byteLength":21924,
			"byteOffset":1177984,
			"target":34962
		},
		{
			"buffer":0,
			"byteLength":14616,
			"byteOffset":1199908,
			"target":34962
		},
		{
			"buffer":0,
			"byteLength":31716,
			"byteOffset":1214524,
			"target":34962
		},
		{
			"buffer":0,
			"byteLength":31716,
			"byteOffset":1246240,
			"target":34962
		},
		{
			"buffer":0,
			"byteLength":21144,
			"byteOffset":1277956,
			"target":34962
		},
		{
			"buffer":0,
			"byteLength":21144,
			"byteOffset":1299100,
			"target":34962
		},
		{
			"buffer":0,
			"byteLength":20460,
			"byteOffset":1320244,
			"target":34962
		},
		{
			"buffer":0,
			"byteLength":20460,
			"byteOffset":1340704,
			"target":34962
		},
		{
			"buffer":0,
			"byteLength":13640,
			"byteOffset":1361164,
			"target":34962
		},
		{
			"buffer":0,
			"byteLength":20460,
			"byteOffset":1374804,
			"target":34962
		},
		{
			"buffer":0,
			"byteLength":20460,
			"byteOffset":1395264,
			"target":34962
		},
		{
			"buffer":0,
			"byteLength":13640,
			"byteOffset":1415724,
			"target":34962
		},
		{
			"buffer":0,
			"byteLength":24360,
			"byteOffset":1429364,
			"target":34962
		},
		{
			"buffer":0,
			"byteLength":24360,
			"byteOffset":1453724,
			"target":34962
		},
		{
			"buffer":0,
			"byteLength":16240,
			"byteOffset":1478084,
			"target":34962
		},
		{
			"buffer":0,
			"byteLength":17856,
			"byteOffset":1494324,
			"target":34963
		},
		{
			"buffer":0,
			"byteLength":22200,
			"byteOffset":1512180,
			"target":34962
		},
		{
			"buffer":0,
			"byteLength":22200,
			"byteOffset":1534380,
			"target":34962
		},
		{
			"buffer":0,
			"byteLength":14800,
			"byteOffset":1556580,
			"target":34962
		},
		{
			"buffer":0,
			"byteLength":12468,
			"byteOffset":1571380,
			"target":34962
		},
		{
			"buffer":0,
			"byteLength":12468,
			"byteOffset":1583848,
			"target":34962
		},
		{
			"buffer":0,
			"byteLength":8312,
			"byteOffset":1596316,
			"target":34962
		},
		{
			"buffer":0,
			"byteLength":12468,
			"byteOffset":1604628,
			"target":34962
		},
		{
			"buffer":0,
			"byteLength":12468,
			"byteOffset":1617096,
			"target":34962
		},
		{
			"buffer":0,
			"byteLength":8312,
			"byteOffset":1629564,
			"target":34962
		},
		{
			"buffer":0,
			"byteLength":12468,
			"byteOffset":1637876,
			"target":34962
		},
		{
			"buffer":0,
			"byteLength":12468,
			"byteOffset":1650344,
			"target":34962
		},
		{
			"buffer":0,
			"byteLength":8312,
			"byteOffset":1662812,
			"target":34962
		},
		{
			"buffer":0,
			"byteLength":12468,
			"byteOffset":1671124,
			"target":34962
		},
		{
			"buffer":0,
			"byteLength":12468,
			"byteOffset":1683592,
			"target":34962
		},
		{
			"buffer":0,
			"byteLength":8312,
			"byteOffset":1696060,
			"target":34962
		},
		{
			"buffer":0,
			"byteLength":12468,
			"byteOffset":1704372,
			"target":34962
		},
		{
			"buffer":0,
			"byteLength":12468,
			"byteOffset":1716840,
			"target":34962
		},
		{
			"buffer":0,
			"byteLength":8312,
			"byteOffset":1729308,
			"target":34962
		},
		{
			"buffer":0,
			"byteLength":12468,
			"byteOffset":1737620,
			"target":34962
		},
		{
			"buffer":0,
			"byteLength":12468,
			"byteOffset":1750088,
			"target":34962
		},
		{
			"buffer":0,
			"byteLength":8312,
			"byteOffset":1762556,
			"target":34962
		},
		{
			"buffer":0,
			"byteLength":12468,
			"byteOffset":1770868,
			"target":34962
		},
		{
			"buffer":0,
			"byteLength":12468,
			"byteOffset":1783336,
			"target":34962
		},
		{
			"buffer":0,
			"byteLength":8312,
			"byteOffset":1795804,
			"target":34962
		}
	],
	"samplers":[
		{
			"magFilter":9729,
			"minFilter":9987
		}
	],
	"buffers":[
		{
			"byteLength":1804116,
			"uri":"chess.bin"
		}
	]
}
